<?xml version="1.0" encoding="UTF-8" standalone="no"?>
<!DOCTYPE svg PUBLIC "-//W3C//DTD SVG 1.1//EN" "http://www.w3.org/Graphics/SVG/1.1/DTD/svg11.dtd">
<svg width="100%" height="100%" viewBox="0 0 20 20" version="1.1" xmlns="http://www.w3.org/2000/svg" xmlns:xlink="http://www.w3.org/1999/xlink" xml:space="preserve" xmlns:serif="http://www.serif.com/" style="fill-rule:evenodd;clip-rule:evenodd;stroke-linejoin:round;stroke-miterlimit:1.41421;">
    <g transform="matrix(0.80013,0,0,1,1.99935,0)">
        <path d="M15.007,6C14.92,6.001 14.834,6.003 14.748,6.008C12.541,6.166 11.198,8.264 10.968,10.609C10.65,13.481 7.993,16 5,16L5,14C5.086,13.999 5.166,13.997 5.252,13.992C7.459,13.834 8.802,11.736 9.032,9.391C9.35,6.519 12.081,4.095 15,4C15,4 15.002,5.245 15.007,6Z" style="fill:rgb(223,110,65);fill-rule:nonzero;"/>
        <path d="M16.251,4.715L16.253,5.366L16.261,6.984L14.971,7.001L14.927,7.002L14.883,7.003L14.855,7.005L14.8,7.009L14.743,7.016L14.686,7.024L14.63,7.034L14.575,7.045L14.52,7.058L14.467,7.072L14.413,7.088L14.36,7.105L14.307,7.124L14.255,7.144L14.202,7.167L14.15,7.191L14.097,7.216L14.045,7.244L13.993,7.273L13.941,7.305L13.888,7.338L13.836,7.373L13.784,7.41L13.732,7.449L13.68,7.491L13.629,7.534L13.578,7.579L13.527,7.626L13.476,7.675L13.426,7.726L13.376,7.779L13.327,7.834L13.278,7.891L13.23,7.95L13.183,8.011L13.136,8.073L13.09,8.138L13.045,8.204L13,8.271L12.957,8.341L12.914,8.412L12.872,8.484L12.832,8.559L12.792,8.634L12.753,8.712L12.716,8.79L12.679,8.87L12.644,8.952L12.61,9.034L12.577,9.118L12.545,9.203L12.515,9.289L12.485,9.376L12.457,9.465L12.43,9.554L12.405,9.644L12.381,9.735L12.358,9.827L12.336,9.92L12.316,10.014L12.298,10.108L12.28,10.203L12.264,10.299L12.25,10.395L12.236,10.492L12.225,10.589L12.213,10.7L12.194,10.852L12.171,11.006L12.144,11.159L12.114,11.311L12.08,11.463L12.042,11.613L12,11.762L11.955,11.911L11.906,12.058L11.854,12.204L11.799,12.349L11.74,12.493L11.678,12.635L11.613,12.776L11.544,12.916L11.473,13.055L11.398,13.191L11.32,13.327L11.239,13.461L11.155,13.593L11.068,13.723L10.979,13.852L10.886,13.98L10.791,14.105L10.692,14.229L10.591,14.35L10.488,14.47L10.381,14.588L10.272,14.704L10.161,14.818L10.046,14.929L9.929,15.039L9.81,15.146L9.688,15.251L9.563,15.354L9.436,15.454L9.307,15.552L9.175,15.647L9.041,15.74L8.904,15.83L8.765,15.918L8.624,16.003L8.48,16.084L8.334,16.163L8.186,16.239L8.035,16.312L7.886,16.381L7.805,16.416L7.728,16.449L7.649,16.481L7.571,16.512L7.491,16.542L7.412,16.572L7.331,16.6L7.25,16.628L7.169,16.655L7.087,16.681L7.005,16.706L6.922,16.73L6.839,16.753L6.755,16.775L6.671,16.797L6.586,16.817L6.501,16.836L6.416,16.854L6.33,16.872L6.244,16.888L6.157,16.903L6.07,16.917L5.983,16.93L5.895,16.942L5.807,16.953L5.718,16.963L5.629,16.971L5.54,16.979L5.451,16.985L5.361,16.991L5.271,16.995L5.181,16.998L5.091,16.999L3.75,17.008L3.75,13.016L5.034,12.999L5.075,12.998L5.117,12.997L5.144,12.995L5.2,12.991L5.257,12.984L5.314,12.976L5.37,12.966L5.425,12.955L5.48,12.942L5.533,12.928L5.587,12.912L5.64,12.895L5.693,12.876L5.745,12.856L5.798,12.833L5.85,12.809L5.903,12.784L5.955,12.756L6.007,12.727L6.059,12.695L6.112,12.662L6.164,12.627L6.216,12.59L6.268,12.551L6.32,12.509L6.371,12.466L6.422,12.421L6.473,12.374L6.524,12.325L6.574,12.274L6.624,12.221L6.673,12.166L6.722,12.109L6.77,12.05L6.817,11.989L6.864,11.927L6.91,11.863L6.955,11.796L7,11.729L7.043,11.659L7.086,11.588L7.128,11.516L7.168,11.441L7.208,11.366L7.247,11.288L7.284,11.21L7.321,11.13L7.356,11.048L7.39,10.966L7.423,10.882L7.455,10.797L7.485,10.711L7.515,10.624L7.543,10.535L7.57,10.446L7.595,10.356L7.619,10.265L7.642,10.173L7.664,10.08L7.684,9.986L7.702,9.892L7.72,9.797L7.736,9.701L7.75,9.605L7.764,9.508L7.775,9.411L7.787,9.3L7.806,9.148L7.829,8.993L7.856,8.84L7.888,8.687L7.923,8.535L7.961,8.385L8.004,8.236L8.05,8.087L8.1,7.941L8.153,7.795L8.21,7.65L8.27,7.507L8.333,7.366L8.4,7.225L8.47,7.087L8.543,6.949L8.619,6.814L8.699,6.679L8.781,6.547L8.867,6.416L8.955,6.287L9.046,6.159L9.14,6.034L9.237,5.91L9.337,5.788L9.439,5.668L9.544,5.549L9.651,5.433L9.762,5.319L9.874,5.207L9.989,5.097L10.107,4.989L10.227,4.883L10.349,4.78L10.474,4.679L10.601,4.58L10.731,4.484L10.862,4.39L10.996,4.298L11.132,4.209L11.27,4.123L11.41,4.039L11.553,3.958L11.697,3.88L11.843,3.804L11.992,3.732L12.142,3.662L12.294,3.595L12.448,3.532L12.604,3.472L12.762,3.414L12.921,3.36L13.078,3.311L13.164,3.286L13.245,3.263L13.327,3.241L13.41,3.219L13.492,3.199L13.575,3.18L13.659,3.161L13.743,3.143L13.827,3.127L13.912,3.111L13.997,3.096L14.082,3.082L14.167,3.07L14.253,3.058L14.339,3.047L14.426,3.037L14.512,3.029L14.599,3.021L14.686,3.014L14.774,3.009L14.861,3.004L16.248,2.95L16.251,4.715ZM14.932,4.003L14.863,4.006L14.795,4.011L14.727,4.016L14.659,4.022L14.591,4.029L14.523,4.036L14.455,4.045L14.388,4.054L14.32,4.064L14.253,4.075L14.186,4.087L14.119,4.099L14.052,4.112L13.985,4.126L13.918,4.141L13.852,4.157L13.786,4.173L13.72,4.19L13.654,4.208L13.588,4.227L13.523,4.246L13.392,4.287L13.263,4.33L13.135,4.377L13.007,4.426L12.881,4.479L12.755,4.534L12.631,4.591L12.508,4.651L12.386,4.714L12.266,4.779L12.147,4.847L12.029,4.918L11.913,4.99L11.798,5.065L11.684,5.143L11.573,5.223L11.463,5.305L11.355,5.389L11.248,5.475L11.143,5.564L11.04,5.654L10.939,5.747L10.84,5.841L10.743,5.938L10.648,6.036L10.556,6.137L10.465,6.239L10.376,6.343L10.29,6.448L10.206,6.556L10.125,6.665L10.046,6.775L9.969,6.887L9.895,7.001L9.823,7.116L9.754,7.233L9.688,7.351L9.624,7.47L9.563,7.59L9.505,7.712L9.45,7.835L9.398,7.96L9.349,8.085L9.303,8.211L9.26,8.339L9.22,8.467L9.183,8.597L9.149,8.727L9.119,8.858L9.092,8.991L9.068,9.123L9.048,9.257L9.032,9.391L9.02,9.501L9.007,9.61L8.992,9.719L8.976,9.828L8.958,9.935L8.938,10.043L8.917,10.149L8.894,10.256L8.87,10.361L8.844,10.466L8.816,10.57L8.787,10.673L8.756,10.775L8.724,10.877L8.69,10.977L8.655,11.077L8.618,11.176L8.579,11.273L8.539,11.37L8.498,11.465L8.455,11.56L8.41,11.653L8.364,11.745L8.317,11.835L8.268,11.925L8.217,12.013L8.165,12.1L8.112,12.185L8.057,12.269L8.001,12.351L7.943,12.432L7.884,12.511L7.823,12.589L7.761,12.665L7.697,12.739L7.632,12.812L7.565,12.883L7.497,12.952L7.428,13.019L7.357,13.085L7.285,13.148L7.212,13.21L7.137,13.269L7.06,13.327L6.983,13.382L6.904,13.436L6.823,13.487L6.741,13.536L6.658,13.583L6.574,13.627L6.488,13.669L6.401,13.709L6.312,13.747L6.222,13.782L6.131,13.815L6.039,13.845L5.945,13.872L5.85,13.898L5.753,13.92L5.656,13.94L5.557,13.957L5.456,13.971L5.355,13.983L5.252,13.992L5.188,13.995L5.126,13.998L5.064,13.999L5,14L5,16L5.07,16L5.14,15.998L5.21,15.996L5.28,15.993L5.349,15.989L5.419,15.984L5.488,15.978L5.557,15.971L5.626,15.963L5.694,15.955L5.763,15.946L5.831,15.935L5.9,15.924L5.968,15.912L6.035,15.9L6.103,15.886L6.17,15.872L6.237,15.857L6.304,15.841L6.371,15.824L6.437,15.806L6.504,15.788L6.569,15.769L6.635,15.749L6.701,15.728L6.766,15.706L6.831,15.684L6.895,15.661L6.959,15.637L7.024,15.613L7.087,15.588L7.151,15.562L7.214,15.535L7.277,15.507L7.401,15.45L7.525,15.391L7.647,15.328L7.767,15.263L7.886,15.195L8.004,15.125L8.12,15.051L8.235,14.976L8.347,14.898L8.459,14.818L8.568,14.735L8.676,14.65L8.781,14.563L8.885,14.473L8.987,14.381L9.088,14.288L9.186,14.192L9.282,14.094L9.376,13.994L9.467,13.893L9.557,13.789L9.644,13.684L9.729,13.577L9.812,13.468L9.893,13.358L9.971,13.245L10.046,13.132L10.119,13.017L10.19,12.9L10.257,12.782L10.323,12.663L10.385,12.542L10.445,12.42L10.502,12.297L10.556,12.173L10.607,12.047L10.656,11.921L10.701,11.793L10.743,11.665L10.783,11.536L10.819,11.405L10.852,11.274L10.882,11.143L10.908,11.01L10.932,10.877L10.952,10.743L10.968,10.609L10.98,10.499L10.993,10.39L11.008,10.281L11.024,10.172L11.042,10.065L11.062,9.957L11.083,9.851L11.106,9.744L11.13,9.639L11.156,9.534L11.184,9.43L11.213,9.327L11.244,9.225L11.276,9.123L11.31,9.023L11.345,8.923L11.382,8.824L11.421,8.727L11.461,8.63L11.502,8.535L11.545,8.44L11.59,8.347L11.636,8.255L11.683,8.165L11.732,8.075L11.783,7.987L11.835,7.9L11.888,7.815L11.943,7.731L11.999,7.649L12.057,7.568L12.116,7.489L12.177,7.411L12.239,7.335L12.303,7.261L12.368,7.188L12.435,7.117L12.503,7.048L12.572,6.981L12.643,6.915L12.715,6.852L12.788,6.79L12.863,6.731L12.94,6.673L13.017,6.618L13.096,6.564L13.177,6.513L13.259,6.464L13.342,6.417L13.426,6.373L13.512,6.331L13.599,6.291L13.688,6.253L13.778,6.218L13.869,6.185L13.961,6.155L14.055,6.128L14.15,6.102L14.247,6.08L14.344,6.06L14.443,6.043L14.544,6.029L14.645,6.017L14.748,6.008L14.813,6.005L14.877,6.002L14.942,6.001L15.007,6L15.003,5.369L15.001,4.717L15,4L14.932,4.003Z" style="fill:rgb(58,58,58);"/>
    </g>
    <g transform="matrix(1,0,0,1,15,-12)">
        <rect x="0" y="14" width="4" height="4" style="fill:rgb(189,189,189);"/>
        <path d="M5,19L-1,19L-1,13L5,13L5,19ZM0,14L0,18L4,18L4,14L0,14Z" style="fill:rgb(58,58,58);"/>
    </g>
    <g transform="matrix(1,0,0,1,1,7.10543e-15)">
        <rect x="0" y="14" width="4" height="4" style="fill:rgb(189,189,189);"/>
        <path d="M5,19L-1,19L-1,13L5,13L5,19ZM0,14L0,18L4,18L4,14L0,14Z" style="fill:rgb(58,58,58);"/>
    </g>
</svg>
