<?xml version="1.0" encoding="UTF-8" standalone="no"?>
<!DOCTYPE svg PUBLIC "-//W3C//DTD SVG 1.1//EN" "http://www.w3.org/Graphics/SVG/1.1/DTD/svg11.dtd">
<svg width="100%" height="100%" viewBox="0 0 20 20" version="1.1" xmlns="http://www.w3.org/2000/svg" xmlns:xlink="http://www.w3.org/1999/xlink" xml:space="preserve" xmlns:serif="http://www.serif.com/" style="fill-rule:evenodd;clip-rule:evenodd;stroke-linejoin:round;stroke-miterlimit:1.41421;">
    <g transform="matrix(0.75,0,0,0.5,10.25,2)">
        <rect x="1" y="14" width="4" height="4" style="fill:rgb(223,110,65);"/>
        <path d="M6.333,20L-0.333,20L-0.333,12L6.333,12L6.333,20ZM1,14L1,18L5,18L5,14L1,14Z" style="fill:rgb(58,58,58);"/>
    </g>
    <g transform="matrix(0.75,0,0,0.5,3.25,2)">
        <rect x="1" y="14" width="4" height="4" style="fill:rgb(189,189,189);"/>
        <path d="M6.333,20L-0.333,20L-0.333,12L6.333,12L6.333,20ZM1,14L1,18L5,18L5,14L1,14Z" style="fill:rgb(58,58,58);"/>
    </g>
    <g transform="matrix(0.5,0,0,1.5,0.5,-14)">
        <rect x="1" y="14" width="4" height="4" style="fill:rgb(189,189,189);"/>
        <path d="M7,18.667L-1,18.667L-1,13.333L7,13.333L7,18.667ZM1,14L1,18L5,18L5,14L1,14Z" style="fill:rgb(58,58,58);"/>
    </g>
    <g transform="matrix(0.5,0,0,2.5,7.5,-30)">
        <rect x="1" y="14" width="4" height="4" style="fill:rgb(189,189,189);"/>
        <path d="M7,18.4L-1,18.4L-1,13.6L7,13.6L7,18.4ZM1,14L1,18L5,18L5,14L1,14Z" style="fill:rgb(58,58,58);"/>
    </g>
    <g transform="matrix(1,0,0,4,14,-54)">
        <rect x="1" y="14" width="4" height="4" style="fill:rgb(223,110,65);"/>
        <path d="M6,13.75L6,18.25L0,18.25L0,13.75L6,13.75ZM1,14L1,18L5,18L5,14L1,14Z" style="fill:rgb(58,58,58);"/>
    </g>
</svg>
