<?xml version="1.0" encoding="UTF-8" standalone="no"?>
<!DOCTYPE svg PUBLIC "-//W3C//DTD SVG 1.1//EN" "http://www.w3.org/Graphics/SVG/1.1/DTD/svg11.dtd">
<svg width="100%" height="100%" viewBox="0 0 20 20" version="1.1" xmlns="http://www.w3.org/2000/svg" xmlns:xlink="http://www.w3.org/1999/xlink" xml:space="preserve" xmlns:serif="http://www.serif.com/" style="fill-rule:evenodd;clip-rule:evenodd;stroke-linejoin:round;stroke-miterlimit:1.41421;">
    <g id="special" transform="matrix(-1,-1.22465e-16,4.01837e-17,-0.328125,20,16.7812)">
        <path d="M9.923,45.046L9.846,45.042L9.769,45.034L9.692,45.024L9.616,45.011L9.54,44.994L9.464,44.975L9.388,44.953L9.312,44.928L9.237,44.901L9.162,44.87L9.088,44.837L9.013,44.801L8.939,44.762L8.866,44.72L8.792,44.676L8.719,44.629L8.646,44.579L8.574,44.526L8.502,44.471L8.43,44.413L8.358,44.353L8.287,44.29L8.217,44.224L8.146,44.156L8.076,44.085L8.007,44.012L7.937,43.936L7.869,43.858L7.797,43.774L7.665,43.609L7.531,43.43L7.399,43.242L7.268,43.044L7.14,42.838L7.013,42.622L6.889,42.397L6.766,42.164L6.645,41.921L6.527,41.671L6.41,41.412L6.296,41.144L6.184,40.869L6.074,40.586L5.966,40.295L5.861,39.996L5.758,39.69L5.658,39.376L5.56,39.055L5.464,38.727L5.371,38.393L5.281,38.051L5.193,37.702L5.108,37.347L5.026,36.986L4.946,36.618L4.87,36.244L4.796,35.864L4.725,35.478L4.657,35.087L4.593,34.689L4.531,34.287L4.472,33.879L4.418,33.474L4.39,33.257L4.365,33.048L4.34,32.837L4.316,32.625L4.293,32.411L4.27,32.197L4.249,31.982L4.228,31.765L4.208,31.547L4.189,31.328L4.171,31.109L4.154,30.888L4.137,30.666L4.122,30.443L4.107,30.219L4.094,29.994L4.081,29.769L4.069,29.542L4.058,29.315L4.048,29.086L4.039,28.857L4.031,28.627L4.024,28.397L4.017,28.165L4.012,27.933L4.008,27.7L4.004,27.466L4.002,27.232L4,26.997L4,26.759L4.001,26.465L4.003,26.17L4.007,25.875L4.012,25.582L4.019,25.289L4.028,24.998L4.038,24.708L4.049,24.42L4.062,24.132L4.076,23.846L4.092,23.562L4.109,23.278L4.128,22.997L4.148,22.717L4.169,22.438L4.192,22.161L4.216,21.886L4.242,21.612L4.269,21.341L4.297,21.071L4.327,20.802L4.358,20.536L4.39,20.272L4.423,20.009L4.458,19.749L4.494,19.49L4.531,19.234L4.57,18.98L4.61,18.728L4.651,18.478L4.693,18.23L4.736,17.985L4.781,17.741L4.827,17.501L4.874,17.262L4.922,17.026L4.971,16.792L5.021,16.561L5.072,16.332L5.125,16.106L5.179,15.883L5.233,15.662L5.289,15.443L5.346,15.227L5.404,15.014L5.462,14.804L5.522,14.597L5.583,14.392L5.645,14.19L5.708,13.991L5.772,13.795L5.836,13.602L5.902,13.411L5.969,13.224L6.036,13.04L6.105,12.859L6.174,12.681L6.245,12.506L6.316,12.334L6.388,12.166L6.461,12.001L6.482,11.955L10,-6.809L13.518,11.955L13.539,12.001L13.612,12.166L13.684,12.334L13.755,12.506L13.826,12.681L13.895,12.859L13.964,13.04L14.031,13.224L14.098,13.411L14.164,13.602L14.228,13.795L14.292,13.991L14.355,14.19L14.417,14.392L14.478,14.597L14.538,14.804L14.596,15.014L14.654,15.227L14.711,15.443L14.767,15.662L14.821,15.883L14.875,16.106L14.928,16.332L14.979,16.561L15.029,16.792L15.078,17.026L15.126,17.262L15.173,17.501L15.219,17.741L15.264,17.985L15.307,18.23L15.349,18.478L15.39,18.728L15.43,18.98L15.469,19.234L15.506,19.49L15.542,19.749L15.577,20.009L15.61,20.272L15.642,20.536L15.673,20.802L15.703,21.071L15.731,21.341L15.758,21.612L15.784,21.886L15.808,22.161L15.831,22.438L15.852,22.717L15.872,22.997L15.891,23.279L15.908,23.562L15.924,23.846L15.938,24.132L15.951,24.42L15.962,24.708L15.972,24.998L15.981,25.289L15.988,25.582L15.993,25.875L15.997,26.17L15.999,26.465L16,26.759L16,26.997L15.998,27.232L15.996,27.466L15.992,27.7L15.988,27.933L15.983,28.165L15.976,28.397L15.969,28.627L15.961,28.857L15.952,29.086L15.942,29.315L15.931,29.542L15.919,29.769L15.906,29.994L15.893,30.219L15.878,30.443L15.863,30.666L15.846,30.888L15.829,31.109L15.811,31.328L15.792,31.547L15.772,31.765L15.751,31.982L15.73,32.197L15.707,32.411L15.684,32.625L15.66,32.837L15.635,33.048L15.61,33.257L15.582,33.474L15.528,33.879L15.469,34.287L15.407,34.689L15.343,35.087L15.275,35.478L15.204,35.864L15.13,36.244L15.054,36.618L14.974,36.986L14.892,37.347L14.807,37.702L14.719,38.051L14.629,38.393L14.536,38.728L14.44,39.055L14.342,39.376L14.242,39.69L14.139,39.996L14.034,40.295L13.926,40.586L13.816,40.869L13.704,41.144L13.59,41.412L13.473,41.671L13.355,41.921L13.234,42.164L13.111,42.397L12.987,42.622L12.86,42.838L12.732,43.044L12.601,43.242L12.469,43.43L12.335,43.609L12.203,43.774L12.131,43.858L12.063,43.936L11.993,44.012L11.924,44.085L11.854,44.156L11.783,44.224L11.713,44.29L11.642,44.353L11.57,44.413L11.498,44.471L11.426,44.526L11.354,44.579L11.281,44.629L11.208,44.676L11.134,44.72L11.061,44.762L10.987,44.801L10.912,44.837L10.838,44.87L10.763,44.901L10.688,44.928L10.612,44.953L10.536,44.975L10.46,44.994L10.384,45.011L10.308,45.024L10.231,45.034L10.154,45.042L10.077,45.046L10,45.048L9.923,45.046ZM10.065,41.999L10.129,41.995L10.193,41.989L10.257,41.98L10.321,41.969L10.384,41.956L10.448,41.94L10.511,41.921L10.574,41.901L10.636,41.877L10.699,41.852L10.761,41.824L10.823,41.794L10.885,41.762L10.946,41.727L11.007,41.69L11.068,41.651L11.129,41.61L11.189,41.566L11.249,41.52L11.309,41.472L11.368,41.422L11.427,41.369L11.486,41.314L11.545,41.258L11.603,41.199L11.661,41.138L11.718,41.075L11.776,41.01L11.833,40.942L11.945,40.802L12.057,40.653L12.167,40.496L12.275,40.332L12.382,40.16L12.488,39.98L12.592,39.793L12.694,39.598L12.795,39.396L12.894,39.187L12.991,38.971L13.086,38.748L13.18,38.519L13.271,38.282L13.361,38.039L13.449,37.79L13.535,37.535L13.619,37.273L13.7,37.005L13.78,36.732L13.858,36.452L13.933,36.167L14.006,35.877L14.077,35.581L14.146,35.279L14.212,34.973L14.276,34.661L14.337,34.344L14.396,34.023L14.453,33.697L14.507,33.366L14.558,33.031L14.607,32.691L14.653,32.347L14.675,32.174L14.696,31.999L14.717,31.824L14.737,31.647L14.756,31.47L14.775,31.291L14.793,31.112L14.81,30.932L14.827,30.75L14.842,30.568L14.858,30.385L14.872,30.201L14.885,30.017L14.898,29.831L14.91,29.645L14.922,29.458L14.932,29.27L14.942,29.081L14.951,28.892L14.96,28.702L14.967,28.511L14.974,28.319L14.98,28.127L14.985,27.934L14.99,27.74L14.993,27.546L14.996,27.351L14.998,27.155L15,26.959L15,26.762L14.999,26.514L14.997,26.267L14.994,26.021L14.99,25.776L14.984,25.533L14.977,25.29L14.969,25.048L14.959,24.807L14.948,24.568L14.937,24.33L14.923,24.093L14.909,23.857L14.894,23.623L14.877,23.389L14.859,23.158L14.84,22.927L14.82,22.698L14.799,22.471L14.776,22.244L14.753,22.02L14.728,21.797L14.702,21.575L14.676,21.355L14.648,21.137L14.619,20.92L14.589,20.705L14.558,20.491L14.525,20.28L14.492,20.07L14.458,19.861L14.423,19.655L14.387,19.451L14.35,19.248L14.312,19.047L14.273,18.849L14.233,18.652L14.192,18.457L14.15,18.264L14.107,18.074L14.063,17.885L14.018,17.699L13.973,17.514L13.926,17.332L13.879,17.152L13.831,16.975L13.782,16.799L13.732,16.626L13.681,16.455L13.629,16.287L13.577,16.121L13.524,15.957L13.469,15.796L13.415,15.637L13.359,15.481L13.303,15.327L13.245,15.176L13.188,15.028L13.129,14.882L13.07,14.739L13.009,14.598L12.949,14.46L12.887,14.325L12.825,14.193L12.762,14.064L10,-0.667L7.238,14.064L7.175,14.193L7.113,14.325L7.051,14.46L6.991,14.598L6.93,14.739L6.871,14.882L6.812,15.028L6.755,15.176L6.697,15.327L6.641,15.481L6.585,15.637L6.531,15.796L6.476,15.957L6.423,16.121L6.371,16.287L6.319,16.455L6.268,16.626L6.218,16.799L6.169,16.975L6.121,17.152L6.074,17.332L6.027,17.514L5.982,17.699L5.937,17.885L5.893,18.074L5.85,18.264L5.808,18.457L5.767,18.652L5.727,18.849L5.688,19.047L5.65,19.248L5.613,19.451L5.577,19.655L5.542,19.861L5.508,20.07L5.475,20.28L5.442,20.491L5.411,20.705L5.381,20.92L5.352,21.137L5.324,21.355L5.298,21.575L5.272,21.797L5.247,22.02L5.224,22.244L5.201,22.471L5.18,22.698L5.16,22.927L5.141,23.158L5.123,23.389L5.106,23.623L5.091,23.857L5.077,24.093L5.063,24.33L5.052,24.568L5.041,24.807L5.031,25.048L5.023,25.29L5.016,25.533L5.01,25.776L5.006,26.021L5.003,26.267L5.001,26.514L5,26.762L5,26.959L5.002,27.155L5.004,27.351L5.007,27.546L5.01,27.74L5.015,27.934L5.02,28.127L5.026,28.319L5.033,28.511L5.04,28.702L5.049,28.892L5.058,29.081L5.068,29.27L5.078,29.458L5.09,29.645L5.102,29.831L5.115,30.017L5.128,30.201L5.142,30.385L5.158,30.568L5.173,30.75L5.19,30.932L5.207,31.112L5.225,31.291L5.244,31.47L5.263,31.647L5.283,31.824L5.304,31.999L5.325,32.174L5.347,32.347L5.393,32.691L5.442,33.031L5.493,33.366L5.547,33.697L5.604,34.023L5.663,34.344L5.724,34.661L5.788,34.973L5.854,35.279L5.923,35.581L5.994,35.877L6.067,36.167L6.142,36.452L6.22,36.732L6.3,37.005L6.381,37.273L6.465,37.535L6.551,37.79L6.639,38.039L6.729,38.282L6.82,38.519L6.914,38.748L7.009,38.971L7.106,39.187L7.205,39.396L7.306,39.598L7.408,39.793L7.512,39.98L7.618,40.16L7.725,40.332L7.833,40.496L7.943,40.653L8.055,40.802L8.167,40.942L8.224,41.01L8.282,41.075L8.339,41.138L8.397,41.199L8.455,41.258L8.514,41.314L8.573,41.369L8.632,41.422L8.691,41.472L8.751,41.52L8.811,41.566L8.871,41.61L8.932,41.651L8.993,41.69L9.054,41.727L9.115,41.762L9.177,41.794L9.239,41.824L9.301,41.852L9.364,41.877L9.426,41.901L9.489,41.921L9.552,41.94L9.616,41.956L9.679,41.969L9.743,41.98L9.807,41.989L9.871,41.995L9.935,41.999L10,42L10.065,41.999Z" style="fill:rgb(58,58,58);"/>
        <g transform="matrix(-2,-3.73226e-16,1.26067e-16,-1.56863,30,28.9019)">
            <path d="M12,5.25L8,5.25L10,18.85L12,5.25Z" style="fill:rgb(189,189,189);"/>
        </g>
        <g transform="matrix(-1,3.73226e-16,-1.22465e-16,-3.04762,20,51.1429)">
            <circle cx="10" cy="8" r="5" style="fill:rgb(223,110,65);"/>
            <path d="M10.077,2L10.154,2.002L10.231,2.004L10.308,2.008L10.384,2.012L10.46,2.017L10.536,2.024L10.612,2.031L10.688,2.039L10.763,2.048L10.838,2.058L10.912,2.069L10.987,2.081L11.061,2.094L11.134,2.107L11.208,2.122L11.281,2.137L11.354,2.154L11.426,2.171L11.498,2.189L11.57,2.208L11.642,2.228L11.713,2.249L11.783,2.27L11.854,2.293L11.924,2.316L11.993,2.34L12.062,2.365L12.131,2.39L12.203,2.418L12.335,2.472L12.469,2.531L12.601,2.593L12.732,2.657L12.86,2.725L12.987,2.796L13.111,2.87L13.234,2.946L13.355,3.026L13.473,3.108L13.59,3.193L13.704,3.281L13.816,3.371L13.926,3.464L14.034,3.56L14.139,3.658L14.242,3.758L14.342,3.861L14.44,3.966L14.536,4.074L14.629,4.184L14.719,4.296L14.807,4.41L14.892,4.527L14.974,4.645L15.054,4.766L15.13,4.889L15.204,5.013L15.275,5.14L15.343,5.268L15.407,5.399L15.469,5.531L15.528,5.665L15.582,5.797L15.61,5.869L15.635,5.937L15.66,6.007L15.684,6.076L15.707,6.146L15.73,6.217L15.751,6.287L15.772,6.358L15.792,6.43L15.811,6.502L15.829,6.574L15.846,6.646L15.863,6.719L15.878,6.792L15.893,6.866L15.906,6.939L15.919,7.013L15.931,7.088L15.942,7.162L15.952,7.237L15.961,7.312L15.969,7.388L15.976,7.464L15.983,7.54L15.988,7.616L15.992,7.692L15.996,7.769L15.998,7.846L16,7.923L16,8L16,8.077L15.998,8.154L15.996,8.231L15.992,8.308L15.988,8.384L15.983,8.46L15.976,8.536L15.969,8.612L15.961,8.688L15.952,8.763L15.942,8.838L15.931,8.912L15.919,8.987L15.906,9.061L15.893,9.134L15.878,9.208L15.863,9.281L15.846,9.354L15.829,9.426L15.811,9.498L15.792,9.57L15.772,9.642L15.751,9.713L15.73,9.783L15.707,9.854L15.684,9.924L15.66,9.993L15.635,10.063L15.61,10.131L15.582,10.203L15.528,10.335L15.469,10.469L15.407,10.601L15.343,10.732L15.275,10.86L15.204,10.987L15.13,11.111L15.054,11.234L14.974,11.355L14.892,11.473L14.807,11.59L14.719,11.704L14.629,11.816L14.536,11.926L14.44,12.034L14.342,12.139L14.242,12.242L14.139,12.342L14.034,12.44L13.926,12.536L13.816,12.629L13.704,12.719L13.59,12.807L13.473,12.892L13.355,12.974L13.234,13.054L13.111,13.13L12.987,13.204L12.86,13.275L12.732,13.343L12.601,13.407L12.469,13.469L12.335,13.528L12.203,13.582L12.131,13.61L12.063,13.635L11.993,13.66L11.924,13.684L11.854,13.707L11.783,13.73L11.713,13.751L11.642,13.772L11.57,13.792L11.498,13.811L11.426,13.829L11.354,13.846L11.281,13.863L11.208,13.878L11.134,13.893L11.061,13.906L10.987,13.919L10.912,13.931L10.838,13.942L10.763,13.952L10.688,13.961L10.612,13.969L10.536,13.976L10.46,13.983L10.384,13.988L10.308,13.992L10.231,13.996L10.154,13.998L10.077,14L10,14L9.923,14L9.846,13.998L9.769,13.996L9.692,13.992L9.616,13.988L9.54,13.983L9.464,13.976L9.388,13.969L9.312,13.961L9.237,13.952L9.162,13.942L9.088,13.931L9.013,13.919L8.939,13.906L8.866,13.893L8.792,13.878L8.719,13.863L8.646,13.846L8.574,13.829L8.502,13.811L8.43,13.792L8.358,13.772L8.287,13.751L8.217,13.73L8.146,13.707L8.076,13.684L8.007,13.66L7.937,13.635L7.869,13.61L7.797,13.582L7.665,13.528L7.531,13.469L7.399,13.407L7.268,13.343L7.14,13.275L7.013,13.204L6.889,13.13L6.766,13.054L6.645,12.974L6.527,12.892L6.41,12.807L6.296,12.719L6.184,12.629L6.074,12.536L5.966,12.44L5.861,12.342L5.758,12.242L5.658,12.139L5.56,12.034L5.464,11.926L5.371,11.816L5.281,11.704L5.193,11.59L5.108,11.473L5.026,11.355L4.946,11.234L4.87,11.111L4.796,10.987L4.725,10.86L4.657,10.732L4.593,10.601L4.531,10.469L4.472,10.335L4.418,10.203L4.39,10.131L4.365,10.063L4.34,9.993L4.316,9.924L4.293,9.854L4.27,9.783L4.249,9.713L4.228,9.642L4.208,9.57L4.189,9.498L4.171,9.426L4.154,9.354L4.137,9.281L4.122,9.208L4.107,9.134L4.094,9.061L4.081,8.987L4.069,8.912L4.058,8.838L4.048,8.763L4.039,8.688L4.031,8.612L4.024,8.536L4.017,8.46L4.012,8.384L4.008,8.308L4.004,8.231L4.002,8.154L4,8.077L4,8L4,7.923L4.002,7.846L4.004,7.769L4.008,7.692L4.012,7.616L4.017,7.54L4.024,7.464L4.031,7.388L4.039,7.312L4.048,7.237L4.058,7.162L4.069,7.088L4.081,7.013L4.094,6.939L4.107,6.866L4.122,6.792L4.137,6.719L4.154,6.646L4.171,6.574L4.189,6.502L4.208,6.43L4.228,6.358L4.249,6.287L4.27,6.217L4.293,6.146L4.316,6.076L4.34,6.007L4.365,5.937L4.39,5.869L4.418,5.797L4.472,5.665L4.531,5.531L4.593,5.399L4.657,5.268L4.725,5.14L4.796,5.013L4.87,4.889L4.946,4.766L5.026,4.645L5.108,4.527L5.193,4.41L5.281,4.296L5.371,4.184L5.464,4.074L5.56,3.966L5.658,3.861L5.758,3.758L5.861,3.658L5.966,3.56L6.074,3.464L6.184,3.371L6.296,3.281L6.41,3.193L6.527,3.108L6.645,3.026L6.766,2.946L6.889,2.87L7.013,2.796L7.14,2.725L7.268,2.657L7.399,2.593L7.531,2.531L7.665,2.472L7.797,2.418L7.869,2.39L7.938,2.365L8.007,2.34L8.076,2.316L8.146,2.293L8.217,2.27L8.287,2.249L8.358,2.228L8.43,2.208L8.502,2.189L8.574,2.171L8.646,2.154L8.719,2.137L8.792,2.122L8.866,2.107L8.939,2.094L9.013,2.081L9.088,2.069L9.162,2.058L9.237,2.048L9.312,2.039L9.388,2.031L9.464,2.024L9.54,2.017L9.616,2.012L9.692,2.008L9.769,2.004L9.846,2.002L9.923,2L10,2L10.077,2ZM9.935,3L9.871,3.002L9.807,3.004L9.743,3.007L9.679,3.01L9.616,3.015L9.552,3.02L9.489,3.026L9.426,3.033L9.364,3.04L9.301,3.049L9.239,3.058L9.177,3.068L9.115,3.078L9.054,3.09L8.993,3.102L8.932,3.115L8.871,3.128L8.811,3.142L8.751,3.158L8.691,3.173L8.632,3.19L8.573,3.207L8.514,3.225L8.455,3.244L8.397,3.263L8.339,3.283L8.282,3.304L8.224,3.325L8.167,3.347L8.055,3.393L7.943,3.442L7.833,3.493L7.725,3.547L7.618,3.604L7.512,3.663L7.408,3.724L7.306,3.788L7.205,3.854L7.106,3.923L7.009,3.994L6.914,4.067L6.82,4.142L6.729,4.22L6.639,4.3L6.551,4.381L6.465,4.465L6.381,4.551L6.3,4.639L6.22,4.729L6.142,4.82L6.067,4.914L5.994,5.009L5.923,5.106L5.854,5.205L5.788,5.306L5.724,5.408L5.663,5.512L5.604,5.618L5.547,5.725L5.493,5.833L5.442,5.943L5.393,6.055L5.347,6.167L5.325,6.224L5.304,6.282L5.283,6.339L5.263,6.397L5.244,6.455L5.225,6.514L5.207,6.573L5.19,6.632L5.173,6.691L5.158,6.751L5.142,6.811L5.128,6.871L5.115,6.932L5.102,6.993L5.09,7.054L5.078,7.115L5.068,7.177L5.058,7.239L5.049,7.301L5.04,7.364L5.033,7.426L5.026,7.489L5.02,7.552L5.015,7.616L5.01,7.679L5.007,7.743L5.004,7.807L5.002,7.871L5,7.935L5,8L5,8.065L5.002,8.129L5.004,8.193L5.007,8.257L5.01,8.321L5.015,8.384L5.02,8.448L5.026,8.511L5.033,8.574L5.04,8.636L5.049,8.699L5.058,8.761L5.068,8.823L5.078,8.885L5.09,8.946L5.102,9.007L5.115,9.068L5.128,9.129L5.142,9.189L5.158,9.249L5.173,9.309L5.19,9.368L5.207,9.427L5.225,9.486L5.244,9.545L5.263,9.603L5.283,9.661L5.304,9.718L5.325,9.776L5.347,9.833L5.393,9.945L5.442,10.057L5.493,10.167L5.547,10.275L5.604,10.382L5.663,10.488L5.724,10.592L5.788,10.694L5.854,10.795L5.923,10.894L5.994,10.991L6.067,11.086L6.142,11.18L6.22,11.271L6.3,11.361L6.381,11.449L6.465,11.535L6.551,11.619L6.639,11.7L6.729,11.78L6.82,11.858L6.914,11.933L7.009,12.006L7.106,12.077L7.205,12.146L7.306,12.212L7.408,12.276L7.512,12.337L7.618,12.396L7.725,12.453L7.833,12.507L7.943,12.558L8.055,12.607L8.167,12.653L8.224,12.675L8.282,12.696L8.339,12.717L8.397,12.737L8.455,12.756L8.514,12.775L8.573,12.793L8.632,12.81L8.691,12.827L8.751,12.842L8.811,12.858L8.871,12.872L8.932,12.885L8.993,12.898L9.054,12.91L9.115,12.922L9.177,12.932L9.239,12.942L9.301,12.951L9.364,12.96L9.426,12.967L9.489,12.974L9.552,12.98L9.616,12.985L9.679,12.99L9.743,12.993L9.807,12.996L9.871,12.998L9.935,13L10,13L10.065,13L10.129,12.998L10.193,12.996L10.257,12.993L10.321,12.99L10.384,12.985L10.448,12.98L10.511,12.974L10.574,12.967L10.636,12.96L10.699,12.951L10.761,12.942L10.823,12.932L10.885,12.922L10.946,12.91L11.007,12.898L11.068,12.885L11.129,12.872L11.189,12.858L11.249,12.842L11.309,12.827L11.368,12.81L11.427,12.793L11.486,12.775L11.545,12.756L11.603,12.737L11.661,12.717L11.718,12.696L11.776,12.675L11.833,12.653L11.945,12.607L12.057,12.558L12.167,12.507L12.275,12.453L12.382,12.396L12.488,12.337L12.592,12.276L12.694,12.212L12.795,12.146L12.894,12.077L12.991,12.006L13.086,11.933L13.18,11.858L13.271,11.78L13.361,11.7L13.449,11.619L13.535,11.535L13.619,11.449L13.7,11.361L13.78,11.271L13.858,11.18L13.933,11.086L14.006,10.991L14.077,10.894L14.146,10.795L14.212,10.694L14.276,10.592L14.337,10.488L14.396,10.382L14.453,10.275L14.507,10.167L14.558,10.057L14.607,9.945L14.653,9.833L14.675,9.776L14.696,9.718L14.717,9.661L14.737,9.603L14.756,9.545L14.775,9.486L14.793,9.427L14.81,9.368L14.827,9.309L14.842,9.249L14.858,9.189L14.872,9.129L14.885,9.068L14.898,9.007L14.91,8.946L14.922,8.885L14.932,8.823L14.942,8.761L14.951,8.699L14.96,8.636L14.967,8.574L14.974,8.511L14.98,8.448L14.985,8.384L14.99,8.321L14.993,8.257L14.996,8.193L14.998,8.129L15,8.065L15,8L15,7.935L14.998,7.871L14.996,7.807L14.993,7.743L14.99,7.679L14.985,7.616L14.98,7.552L14.974,7.489L14.967,7.426L14.96,7.364L14.951,7.301L14.942,7.239L14.932,7.177L14.922,7.115L14.91,7.054L14.898,6.993L14.885,6.932L14.872,6.871L14.858,6.811L14.842,6.751L14.827,6.691L14.81,6.632L14.793,6.573L14.775,6.514L14.756,6.455L14.737,6.397L14.717,6.339L14.696,6.282L14.675,6.224L14.653,6.167L14.607,6.055L14.558,5.943L14.507,5.833L14.453,5.725L14.396,5.618L14.337,5.512L14.276,5.408L14.212,5.306L14.146,5.205L14.077,5.106L14.006,5.009L13.933,4.914L13.858,4.82L13.78,4.729L13.7,4.639L13.619,4.551L13.535,4.465L13.449,4.381L13.361,4.3L13.271,4.22L13.18,4.142L13.086,4.067L12.991,3.994L12.894,3.923L12.795,3.854L12.694,3.788L12.592,3.724L12.488,3.663L12.382,3.604L12.275,3.547L12.167,3.493L12.057,3.442L11.945,3.393L11.833,3.347L11.776,3.325L11.718,3.304L11.661,3.283L11.603,3.263L11.545,3.244L11.486,3.225L11.427,3.207L11.368,3.19L11.309,3.173L11.249,3.158L11.189,3.142L11.129,3.128L11.068,3.115L11.007,3.102L10.946,3.09L10.885,3.078L10.823,3.068L10.761,3.058L10.699,3.049L10.636,3.04L10.574,3.033L10.511,3.026L10.448,3.02L10.384,3.015L10.321,3.01L10.257,3.007L10.193,3.004L10.129,3.002L10.065,3L10,3L9.935,3Z" style="fill:rgb(58,58,58);"/>
        </g>
    </g>
</svg>
