<?xml version="1.0" encoding="UTF-8" standalone="no"?>
<!DOCTYPE svg PUBLIC "-//W3C//DTD SVG 1.1//EN" "http://www.w3.org/Graphics/SVG/1.1/DTD/svg11.dtd">
<svg width="100%" height="100%" viewBox="0 0 20 20" version="1.1" xmlns="http://www.w3.org/2000/svg" xmlns:xlink="http://www.w3.org/1999/xlink" xml:space="preserve" xmlns:serif="http://www.serif.com/" style="fill-rule:evenodd;clip-rule:evenodd;stroke-linejoin:round;stroke-miterlimit:1.41421;">
    <g>
        <path d="M2,13.45L9,7L11,7L18,13.45L18,14.45L16,14.45L16,13.45L10,8L4,13.45L4,14.45L2,14.45L2,13.45Z" style="fill:rgb(223,110,65);"/>
        <path d="M19,13.011L19,15.45L15,15.45L15,13.892L10,9.351L5,13.892L5,15.45L1,15.45L1,13.011L8.61,6L11.39,6L19,13.011ZM9,7L2,13.45L2,14.45L4,14.45L4,13.45L10,8L16,13.45L16,14.45L18,14.45L18,13.45L11,7L9,7Z" style="fill:rgb(58,58,58);"/>
    </g>
    <g transform="matrix(1,0,0,1,1,7.10543e-15)">
        <rect x="0" y="14" width="4" height="4" style="fill:rgb(189,189,189);"/>
        <path d="M5,19L-1,19L-1,13L5,13L5,19ZM0,14L0,18L4,18L4,14L0,14Z" style="fill:rgb(58,58,58);"/>
    </g>
    <g transform="matrix(1,0,0,1,15,7.10543e-15)">
        <rect x="0" y="14" width="4" height="4" style="fill:rgb(189,189,189);"/>
        <path d="M5,19L-1,19L-1,13L5,13L5,19ZM0,14L0,18L4,18L4,14L0,14Z" style="fill:rgb(58,58,58);"/>
    </g>
    <g transform="matrix(1,0,0,1,8,-12)">
        <rect x="0" y="14" width="4" height="4" style="fill:rgb(189,189,189);"/>
        <path d="M5,13L5,19L-1,19L-1,13L5,13ZM0,14L0,18L4,18L4,14L0,14Z" style="fill:rgb(58,58,58);"/>
    </g>
</svg>
