<?xml version="1.0" encoding="UTF-8" standalone="no"?>
<!DOCTYPE svg PUBLIC "-//W3C//DTD SVG 1.1//EN" "http://www.w3.org/Graphics/SVG/1.1/DTD/svg11.dtd">
<svg width="100%" height="100%" viewBox="0 0 32 32" version="1.1" xmlns="http://www.w3.org/2000/svg" xmlns:xlink="http://www.w3.org/1999/xlink" xml:space="preserve" xmlns:serif="http://www.serif.com/" style="fill-rule:evenodd;clip-rule:evenodd;stroke-linejoin:round;stroke-miterlimit:1.5;">
    <g id="_3" serif:id="3">
        <path id="Strings-expanded" serif:id="Strings expanded" d="M18.879,11.595L19.335,11.139C19.516,11.149 19.698,11.163 19.881,11.183L20.293,11.595L20.601,11.287C20.72,11.308 20.838,11.331 20.956,11.357L20.505,11.808L21,12.303L21.495,11.808L21.069,11.381C21.258,11.424 21.447,11.471 21.636,11.525L21.707,11.595L21.747,11.556C21.855,11.588 21.963,11.621 22.071,11.656L21.919,11.808L22.414,12.303L22.799,11.918C22.9,11.957 23,11.999 23.1,12.041L22.626,12.515L23.121,13.01L23.616,12.515L23.176,12.074C23.472,12.203 23.765,12.345 24.056,12.5L24.041,12.515L24.536,13.01L24.687,12.858C24.774,12.911 24.862,12.966 24.948,13.021L24.748,13.222L25.243,13.717L25.538,13.421C25.62,13.48 25.702,13.54 25.783,13.601L25.455,13.929L25.95,14.424L26.335,14.039C26.412,14.103 26.488,14.168 26.564,14.234L26.162,14.636L26.657,15.131L27.08,14.708C27.137,14.763 27.193,14.819 27.25,14.875L27.293,14.919L26.869,15.343L27.364,15.838L27.774,15.428C27.841,15.503 27.907,15.579 27.972,15.654L27.576,16.05L28.071,16.545L28.416,16.2C28.478,16.28 28.539,16.361 28.599,16.442L28.283,16.757L28.778,17.252L29.005,17.025C29.062,17.111 29.117,17.197 29.171,17.283L28.99,17.464L29.485,17.959L29.538,17.907C29.763,18.315 29.962,18.73 30.135,19.148L29.697,19.586L30.192,20.081L30.407,19.866C30.443,19.973 30.478,20.079 30.511,20.186L30.405,20.293L30.601,20.489C30.678,20.764 30.744,21.039 30.798,21.313L30.405,21.707L30.899,22.202L30.933,22.168C30.954,22.349 30.97,22.529 30.981,22.708L30.899,22.626L30.405,23.121L30.899,23.616L30.998,23.518C30.993,23.716 30.982,23.912 30.965,24.107L30.899,24.041L30.405,24.536L30.845,24.976C30.8,25.212 30.745,25.445 30.68,25.674L30.405,25.95L30.548,26.093C30.512,26.197 30.474,26.301 30.433,26.403L30.192,26.162L29.697,26.657L29.945,26.904L29.733,27.116L29.485,26.869L28.99,27.364L29.238,27.611L29.026,27.824L28.778,27.576L28.283,28.071L28.531,28.319L28.319,28.531L28.071,28.283L27.576,28.778L27.824,29.026L27.611,29.238L27.364,28.99L26.869,29.485L27.116,29.733L26.904,29.945L26.657,29.697L26.162,30.192L26.403,30.433C26.301,30.474 26.197,30.512 26.093,30.548L25.95,30.405L25.674,30.68C25.445,30.745 25.212,30.8 24.976,30.845L24.536,30.405L24.041,30.899L24.107,30.965C23.912,30.982 23.716,30.993 23.518,30.998L23.616,30.899L23.121,30.405L22.626,30.899L22.708,30.981C22.529,30.97 22.349,30.954 22.168,30.933L22.202,30.899L21.707,30.405L21.313,30.798C21.039,30.744 20.764,30.678 20.489,30.601L20.293,30.405L20.186,30.511C20.079,30.478 19.973,30.443 19.866,30.407L20.081,30.192L19.586,29.697L19.148,30.135C18.73,29.962 18.315,29.763 17.907,29.538L17.959,29.485L17.464,28.99L17.283,29.171C17.197,29.117 17.111,29.062 17.025,29.005L17.252,28.778L16.757,28.283L16.442,28.599C16.361,28.539 16.28,28.478 16.2,28.416L16.545,28.071L16.05,27.576L15.654,27.972C15.579,27.907 15.503,27.841 15.428,27.774L15.838,27.364L15.343,26.869L14.919,27.293L14.875,27.25C14.819,27.193 14.763,27.137 14.708,27.08L15.131,26.657L14.636,26.162L14.234,26.564C14.168,26.488 14.103,26.412 14.039,26.335L14.424,25.95L13.929,25.455L13.601,25.783C13.54,25.702 13.48,25.62 13.421,25.538L13.717,25.243L13.222,24.748L13.021,24.948C12.966,24.862 12.911,24.774 12.858,24.687L13.01,24.536L12.515,24.041L12.5,24.056C12.345,23.765 12.203,23.472 12.074,23.176L12.515,23.616L13.01,23.121L12.515,22.626L12.041,23.1C11.999,23 11.957,22.9 11.918,22.799L12.303,22.414L11.808,21.919L11.656,22.071C11.621,21.963 11.588,21.855 11.556,21.747L11.595,21.707L11.525,21.636C11.472,21.447 11.424,21.258 11.381,21.069L11.808,21.495L12.303,21L11.808,20.505L11.357,20.956C11.331,20.838 11.308,20.72 11.287,20.601L11.595,20.293L11.183,19.881C11.163,19.698 11.149,19.516 11.139,19.335L11.595,18.879L11.134,18.417C11.141,18.239 11.154,18.063 11.172,17.888L11.595,17.464L11.28,17.149C11.302,17.032 11.327,16.915 11.355,16.799L11.808,17.252L12.303,16.757L11.808,16.262L11.382,16.688C11.433,16.485 11.492,16.285 11.558,16.088L11.595,16.05L11.577,16.032C11.613,15.928 11.651,15.824 11.692,15.722L11.808,15.838L12.303,15.343L12.055,15.096L12.267,14.884L12.515,15.131L13.01,14.636L12.762,14.389L12.974,14.176L13.222,14.424L13.717,13.929L13.469,13.681L13.681,13.469L13.929,13.717L14.424,13.222L14.176,12.974L14.389,12.762L14.636,13.01L15.131,12.515L14.884,12.267L15.096,12.055L15.343,12.303L15.838,11.808L15.722,11.692C15.825,11.651 15.928,11.613 16.032,11.577L16.05,11.595L16.088,11.558C16.285,11.492 16.485,11.433 16.688,11.382L16.262,11.808L16.757,12.303L17.252,11.808L16.799,11.355C16.915,11.327 17.032,11.302 17.149,11.28L17.464,11.595L17.888,11.172C18.063,11.154 18.239,11.142 18.417,11.134L18.879,11.595ZM24.748,30.192L25.243,30.687L25.738,30.192L25.243,29.697L24.748,30.192ZM21.919,30.192L22.414,30.687L22.909,30.192L22.414,29.697L21.919,30.192ZM20.505,30.192L21,30.687L21.495,30.192L21,29.697L20.505,30.192ZM23.333,30.192L23.828,30.687L24.323,30.192L23.828,29.697L23.333,30.192ZM24.041,29.485L24.536,29.98L25.031,29.485L24.536,28.99L24.041,29.485ZM18.384,29.485L18.879,29.98L19.374,29.485L18.879,28.99L18.384,29.485ZM19.798,29.485L20.293,29.98L20.788,29.485L20.293,28.99L19.798,29.485ZM22.626,29.485L23.121,29.98L23.616,29.485L23.121,28.99L22.626,29.485ZM25.455,29.485L25.95,29.98L26.445,29.485L25.95,28.99L25.455,29.485ZM21.212,29.485L21.707,29.98L22.202,29.485L21.707,28.99L21.212,29.485ZM23.333,28.778L23.828,29.273L24.323,28.778L23.828,28.283L23.333,28.778ZM17.677,28.778L18.172,29.273L18.667,28.778L18.172,28.283L17.677,28.778ZM20.505,28.778L21,29.273L21.495,28.778L21,28.283L20.505,28.778ZM26.162,28.778L26.657,29.273L27.152,28.778L26.657,28.283L26.162,28.778ZM19.091,28.778L19.586,29.273L20.081,28.778L19.586,28.283L19.091,28.778ZM21.919,28.778L22.414,29.273L22.909,28.778L22.414,28.283L21.919,28.778ZM24.748,28.778L25.243,29.273L25.738,28.778L25.243,28.283L24.748,28.778ZM22.626,28.071L23.121,28.566L23.616,28.071L23.121,27.576L22.626,28.071ZM16.969,28.071L17.464,28.566L17.959,28.071L17.464,27.576L16.969,28.071ZM18.384,28.071L18.879,28.566L19.374,28.071L18.879,27.576L18.384,28.071ZM21.212,28.071L21.707,28.566L22.202,28.071L21.707,27.576L21.212,28.071ZM24.041,28.071L24.536,28.566L25.031,28.071L24.536,27.576L24.041,28.071ZM26.869,28.071L27.364,28.566L27.859,28.071L27.364,27.576L26.869,28.071ZM19.798,28.071L20.293,28.566L20.788,28.071L20.293,27.576L19.798,28.071ZM25.455,28.071L25.95,28.566L26.445,28.071L25.95,27.576L25.455,28.071ZM21.919,27.364L22.414,27.859L22.909,27.364L22.414,26.869L21.919,27.364ZM19.091,27.364L19.586,27.859L20.081,27.364L19.586,26.869L19.091,27.364ZM24.748,27.364L25.243,27.859L25.738,27.364L25.243,26.869L24.748,27.364ZM27.576,27.364L28.071,27.859L28.566,27.364L28.071,26.869L27.576,27.364ZM16.262,27.364L16.757,27.859L17.252,27.364L16.757,26.869L16.262,27.364ZM17.677,27.364L18.172,27.859L18.667,27.364L18.172,26.869L17.677,27.364ZM20.505,27.364L21,27.859L21.495,27.364L21,26.869L20.505,27.364ZM23.333,27.364L23.828,27.859L24.323,27.364L23.828,26.869L23.333,27.364ZM26.162,27.364L26.657,27.859L27.152,27.364L26.657,26.869L26.162,27.364ZM21.212,26.657L21.707,27.152L22.202,26.657L21.707,26.162L21.212,26.657ZM15.555,26.657L16.05,27.152L16.545,26.657L16.05,26.162L15.555,26.657ZM19.798,26.657L20.293,27.152L20.788,26.657L20.293,26.162L19.798,26.657ZM22.626,26.657L23.121,27.152L23.616,26.657L23.121,26.162L22.626,26.657ZM25.455,26.657L25.95,27.152L26.445,26.657L25.95,26.162L25.455,26.657ZM28.283,26.657L28.778,27.152L29.273,26.657L28.778,26.162L28.283,26.657ZM18.384,26.657L18.879,27.152L19.374,26.657L18.879,26.162L18.384,26.657ZM26.869,26.657L27.364,27.152L27.859,26.657L27.364,26.162L26.869,26.657ZM24.041,26.657L24.536,27.152L25.031,26.657L24.536,26.162L24.041,26.657ZM16.969,26.657L17.464,27.152L17.959,26.657L17.464,26.162L16.969,26.657ZM20.505,25.95L21,26.445L21.495,25.95L21,25.455L20.505,25.95ZM23.333,25.95L23.828,26.445L24.323,25.95L23.828,25.455L23.333,25.95ZM26.162,25.95L26.657,26.445L27.152,25.95L26.657,25.455L26.162,25.95ZM28.99,25.95L29.485,26.445L29.98,25.95L29.485,25.455L28.99,25.95ZM14.848,25.95L15.343,26.445L15.838,25.95L15.343,25.455L14.848,25.95ZM16.262,25.95L16.757,26.445L17.252,25.95L16.757,25.455L16.262,25.95ZM19.091,25.95L19.586,26.445L20.081,25.95L19.586,25.455L19.091,25.95ZM21.919,25.95L22.414,26.445L22.909,25.95L22.414,25.455L21.919,25.95ZM27.576,25.95L28.071,26.445L28.566,25.95L28.071,25.455L27.576,25.95ZM24.748,25.95L25.243,26.445L25.738,25.95L25.243,25.455L24.748,25.95ZM17.677,25.95L18.172,26.445L18.667,25.95L18.172,25.455L17.677,25.95ZM19.798,25.243L20.293,25.738L20.788,25.243L20.293,24.748L19.798,25.243ZM14.141,25.243L14.636,25.738L15.131,25.243L14.636,24.748L14.141,25.243ZM21.212,25.243L21.707,25.738L22.202,25.243L21.707,24.748L21.212,25.243ZM26.869,25.243L27.364,25.738L27.859,25.243L27.364,24.748L26.869,25.243ZM24.041,25.243L24.536,25.738L25.031,25.243L24.536,24.748L24.041,25.243ZM29.697,25.243L30.192,25.738L30.687,25.243L30.192,24.748L29.697,25.243ZM16.969,25.243L17.464,25.738L17.959,25.243L17.464,24.748L16.969,25.243ZM28.283,25.243L28.778,25.738L29.273,25.243L28.778,24.748L28.283,25.243ZM22.626,25.243L23.121,25.738L23.616,25.243L23.121,24.748L22.626,25.243ZM25.455,25.243L25.95,25.738L26.445,25.243L25.95,24.748L25.455,25.243ZM15.555,25.243L16.05,25.738L16.545,25.243L16.05,24.748L15.555,25.243ZM18.384,25.243L18.879,25.738L19.374,25.243L18.879,24.748L18.384,25.243ZM21.919,24.536L22.414,25.031L22.909,24.536L22.414,24.041L21.919,24.536ZM27.576,24.536L28.071,25.031L28.566,24.536L28.071,24.041L27.576,24.536ZM24.748,24.536L25.243,25.031L25.738,24.536L25.243,24.041L24.748,24.536ZM19.091,24.536L19.586,25.031L20.081,24.536L19.586,24.041L19.091,24.536ZM14.848,24.536L15.343,25.031L15.838,24.536L15.343,24.041L14.848,24.536ZM17.677,24.536L18.172,25.031L18.667,24.536L18.172,24.041L17.677,24.536ZM20.505,24.536L21,25.031L21.495,24.536L21,24.041L20.505,24.536ZM13.434,24.536L13.929,25.031L14.424,24.536L13.929,24.041L13.434,24.536ZM23.333,24.536L23.828,25.031L24.323,24.536L23.828,24.041L23.333,24.536ZM26.162,24.536L26.657,25.031L27.152,24.536L26.657,24.041L26.162,24.536ZM28.99,24.536L29.485,25.031L29.98,24.536L29.485,24.041L28.99,24.536ZM16.262,24.536L16.757,25.031L17.252,24.536L16.757,24.041L16.262,24.536ZM18.384,23.828L18.879,24.323L19.374,23.828L18.879,23.333L18.384,23.828ZM22.626,23.828L23.121,24.323L23.616,23.828L23.121,23.333L22.626,23.828ZM25.455,23.828L25.95,24.323L26.445,23.828L25.95,23.333L25.455,23.828ZM28.283,23.828L28.778,24.323L29.273,23.828L28.778,23.333L28.283,23.828ZM15.555,23.828L16.05,24.323L16.545,23.828L16.05,23.333L15.555,23.828ZM12.727,23.828L13.222,24.323L13.717,23.828L13.222,23.333L12.727,23.828ZM21.212,23.828L21.707,24.323L22.202,23.828L21.707,23.333L21.212,23.828ZM24.041,23.828L24.536,24.323L25.031,23.828L24.536,23.333L24.041,23.828ZM26.869,23.828L27.364,24.323L27.859,23.828L27.364,23.333L26.869,23.828ZM14.141,23.828L14.636,24.323L15.131,23.828L14.636,23.333L14.141,23.828ZM16.969,23.828L17.464,24.323L17.959,23.828L17.464,23.333L16.969,23.828ZM19.798,23.828L20.293,24.323L20.788,23.828L20.293,23.333L19.798,23.828ZM29.697,23.828L30.192,24.323L30.687,23.828L30.192,23.333L29.697,23.828ZM23.333,23.121L23.828,23.616L24.323,23.121L23.828,22.626L23.333,23.121ZM26.162,23.121L26.657,23.616L27.152,23.121L26.657,22.626L26.162,23.121ZM16.262,23.121L16.757,23.616L17.252,23.121L16.757,22.626L16.262,23.121ZM17.677,23.121L18.172,23.616L18.667,23.121L18.172,22.626L17.677,23.121ZM19.091,23.121L19.586,23.616L20.081,23.121L19.586,22.626L19.091,23.121ZM21.919,23.121L22.414,23.616L22.909,23.121L22.414,22.626L21.919,23.121ZM24.748,23.121L25.243,23.616L25.738,23.121L25.243,22.626L24.748,23.121ZM27.576,23.121L28.071,23.616L28.566,23.121L28.071,22.626L27.576,23.121ZM13.434,23.121L13.929,23.616L14.424,23.121L13.929,22.626L13.434,23.121ZM14.848,23.121L15.343,23.616L15.838,23.121L15.343,22.626L14.848,23.121ZM28.99,23.121L29.485,23.616L29.98,23.121L29.485,22.626L28.99,23.121ZM20.505,23.121L21,23.616L21.495,23.121L21,22.626L20.505,23.121ZM16.969,22.414L17.464,22.909L17.959,22.414L17.464,21.919L16.969,22.414ZM24.041,22.414L24.536,22.909L25.031,22.414L24.536,21.919L24.041,22.414ZM29.697,22.414L30.192,22.909L30.687,22.414L30.192,21.919L29.697,22.414ZM26.869,22.414L27.364,22.909L27.859,22.414L27.364,21.919L26.869,22.414ZM14.141,22.414L14.636,22.909L15.131,22.414L14.636,21.919L14.141,22.414ZM19.798,22.414L20.293,22.909L20.788,22.414L20.293,21.919L19.798,22.414ZM25.455,22.414L25.95,22.909L26.445,22.414L25.95,21.919L25.455,22.414ZM22.626,22.414L23.121,22.909L23.616,22.414L23.121,21.919L22.626,22.414ZM15.555,22.414L16.05,22.909L16.545,22.414L16.05,21.919L15.555,22.414ZM18.384,22.414L18.879,22.909L19.374,22.414L18.879,21.919L18.384,22.414ZM21.212,22.414L21.707,22.909L22.202,22.414L21.707,21.919L21.212,22.414ZM12.727,22.414L13.222,22.909L13.717,22.414L13.222,21.919L12.727,22.414ZM28.283,22.414L28.778,22.909L29.273,22.414L28.778,21.919L28.283,22.414ZM24.748,21.707L25.243,22.202L25.738,21.707L25.243,21.212L24.748,21.707ZM17.677,21.707L18.172,22.202L18.667,21.707L18.172,21.212L17.677,21.707ZM16.262,21.707L16.757,22.202L17.252,21.707L16.757,21.212L16.262,21.707ZM20.505,21.707L21,22.202L21.495,21.707L21,21.212L20.505,21.707ZM23.333,21.707L23.828,22.202L24.323,21.707L23.828,21.212L23.333,21.707ZM28.99,21.707L29.485,22.202L29.98,21.707L29.485,21.212L28.99,21.707ZM12.02,21.707L12.515,22.202L13.01,21.707L12.515,21.212L12.02,21.707ZM26.162,21.707L26.657,22.202L27.152,21.707L26.657,21.212L26.162,21.707ZM14.848,21.707L15.343,22.202L15.838,21.707L15.343,21.212L14.848,21.707ZM27.576,21.707L28.071,22.202L28.566,21.707L28.071,21.212L27.576,21.707ZM13.434,21.707L13.929,22.202L14.424,21.707L13.929,21.212L13.434,21.707ZM19.091,21.707L19.586,22.202L20.081,21.707L19.586,21.212L19.091,21.707ZM21.919,21.707L22.414,22.202L22.909,21.707L22.414,21.212L21.919,21.707ZM28.283,21L28.778,21.495L29.273,21L28.778,20.505L28.283,21ZM25.455,21L25.95,21.495L26.445,21L25.95,20.505L25.455,21ZM15.555,21L16.05,21.495L16.545,21L16.05,20.505L15.555,21ZM12.727,21L13.222,21.495L13.717,21L13.222,20.505L12.727,21ZM24.041,21L24.536,21.495L25.031,21L24.536,20.505L24.041,21ZM18.384,21L18.879,21.495L19.374,21L18.879,20.505L18.384,21ZM21.212,21L21.707,21.495L22.202,21L21.707,20.505L21.212,21ZM16.969,21L17.464,21.495L17.959,21L17.464,20.505L16.969,21ZM29.697,21L30.192,21.495L30.687,21L30.192,20.505L29.697,21ZM22.626,21L23.121,21.495L23.616,21L23.121,20.505L22.626,21ZM19.798,21L20.293,21.495L20.788,21L20.293,20.505L19.798,21ZM14.141,21L14.636,21.495L15.131,21L14.636,20.505L14.141,21ZM26.869,21L27.364,21.495L27.859,21L27.364,20.505L26.869,21ZM28.99,20.293L29.485,20.788L29.98,20.293L29.485,19.798L28.99,20.293ZM12.02,20.293L12.515,20.788L13.01,20.293L12.515,19.798L12.02,20.293ZM19.091,20.293L19.586,20.788L20.081,20.293L19.586,19.798L19.091,20.293ZM21.919,20.293L22.414,20.788L22.909,20.293L22.414,19.798L21.919,20.293ZM13.434,20.293L13.929,20.788L14.424,20.293L13.929,19.798L13.434,20.293ZM27.576,20.293L28.071,20.788L28.566,20.293L28.071,19.798L27.576,20.293ZM16.262,20.293L16.757,20.788L17.252,20.293L16.757,19.798L16.262,20.293ZM24.748,20.293L25.243,20.788L25.738,20.293L25.243,19.798L24.748,20.293ZM26.162,20.293L26.657,20.788L27.152,20.293L26.657,19.798L26.162,20.293ZM14.848,20.293L15.343,20.788L15.838,20.293L15.343,19.798L14.848,20.293ZM17.677,20.293L18.172,20.788L18.667,20.293L18.172,19.798L17.677,20.293ZM23.333,20.293L23.828,20.788L24.323,20.293L23.828,19.798L23.333,20.293ZM20.505,20.293L21,20.788L21.495,20.293L21,19.798L20.505,20.293ZM26.869,19.586L27.364,20.081L27.859,19.586L27.364,19.091L26.869,19.586ZM14.141,19.586L14.636,20.081L15.131,19.586L14.636,19.091L14.141,19.586ZM11.313,19.586L11.808,20.081L12.303,19.586L11.808,19.091L11.313,19.586ZM19.798,19.586L20.293,20.081L20.788,19.586L20.293,19.091L19.798,19.586ZM22.626,19.586L23.121,20.081L23.616,19.586L23.121,19.091L22.626,19.586ZM12.727,19.586L13.222,20.081L13.717,19.586L13.222,19.091L12.727,19.586ZM16.969,19.586L17.464,20.081L17.959,19.586L17.464,19.091L16.969,19.586ZM28.283,19.586L28.778,20.081L29.273,19.586L28.778,19.091L28.283,19.586ZM18.384,19.586L18.879,20.081L19.374,19.586L18.879,19.091L18.384,19.586ZM21.212,19.586L21.707,20.081L22.202,19.586L21.707,19.091L21.212,19.586ZM15.555,19.586L16.05,20.081L16.545,19.586L16.05,19.091L15.555,19.586ZM24.041,19.586L24.536,20.081L25.031,19.586L24.536,19.091L24.041,19.586ZM25.455,19.586L25.95,20.081L26.445,19.586L25.95,19.091L25.455,19.586ZM13.434,18.879L13.929,19.374L14.424,18.879L13.929,18.384L13.434,18.879ZM27.576,18.879L28.071,19.374L28.566,18.879L28.071,18.384L27.576,18.879ZM20.505,18.879L21,19.374L21.495,18.879L21,18.384L20.505,18.879ZM12.02,18.879L12.515,19.374L13.01,18.879L12.515,18.384L12.02,18.879ZM14.848,18.879L15.343,19.374L15.838,18.879L15.343,18.384L14.848,18.879ZM28.99,18.879L29.485,19.374L29.98,18.879L29.485,18.384L28.99,18.879ZM26.162,18.879L26.657,19.374L27.152,18.879L26.657,18.384L26.162,18.879ZM23.333,18.879L23.828,19.374L24.323,18.879L23.828,18.384L23.333,18.879ZM17.677,18.879L18.172,19.374L18.667,18.879L18.172,18.384L17.677,18.879ZM19.091,18.879L19.586,19.374L20.081,18.879L19.586,18.384L19.091,18.879ZM21.919,18.879L22.414,19.374L22.909,18.879L22.414,18.384L21.919,18.879ZM16.262,18.879L16.757,19.374L17.252,18.879L16.757,18.384L16.262,18.879ZM24.748,18.879L25.243,19.374L25.738,18.879L25.243,18.384L24.748,18.879ZM28.283,18.172L28.778,18.667L29.273,18.172L28.778,17.677L28.283,18.172ZM12.727,18.172L13.222,18.667L13.717,18.172L13.222,17.677L12.727,18.172ZM21.212,18.172L21.707,18.667L22.202,18.172L21.707,17.677L21.212,18.172ZM14.141,18.172L14.636,18.667L15.131,18.172L14.636,17.677L14.141,18.172ZM15.555,18.172L16.05,18.667L16.545,18.172L16.05,17.677L15.555,18.172ZM18.384,18.172L18.879,18.667L19.374,18.172L18.879,17.677L18.384,18.172ZM26.869,18.172L27.364,18.667L27.859,18.172L27.364,17.677L26.869,18.172ZM19.798,18.172L20.293,18.667L20.788,18.172L20.293,17.677L19.798,18.172ZM11.313,18.172L11.808,18.667L12.303,18.172L11.808,17.677L11.313,18.172ZM25.455,18.172L25.95,18.667L26.445,18.172L25.95,17.677L25.455,18.172ZM22.626,18.172L23.121,18.667L23.616,18.172L23.121,17.677L22.626,18.172ZM24.041,18.172L24.536,18.667L25.031,18.172L24.536,17.677L24.041,18.172ZM16.969,18.172L17.464,18.667L17.959,18.172L17.464,17.677L16.969,18.172ZM13.434,17.464L13.929,17.959L14.424,17.464L13.929,16.969L13.434,17.464ZM27.576,17.464L28.071,17.959L28.566,17.464L28.071,16.969L27.576,17.464ZM24.748,17.464L25.243,17.959L25.738,17.464L25.243,16.969L24.748,17.464ZM21.919,17.464L22.414,17.959L22.909,17.464L22.414,16.969L21.919,17.464ZM14.848,17.464L15.343,17.959L15.838,17.464L15.343,16.969L14.848,17.464ZM16.262,17.464L16.757,17.959L17.252,17.464L16.757,16.969L16.262,17.464ZM19.091,17.464L19.586,17.959L20.081,17.464L19.586,16.969L19.091,17.464ZM12.02,17.464L12.515,17.959L13.01,17.464L12.515,16.969L12.02,17.464ZM20.505,17.464L21,17.959L21.495,17.464L21,16.969L20.505,17.464ZM17.677,17.464L18.172,17.959L18.667,17.464L18.172,16.969L17.677,17.464ZM26.162,17.464L26.657,17.959L27.152,17.464L26.657,16.969L26.162,17.464ZM23.333,17.464L23.828,17.959L24.323,17.464L23.828,16.969L23.333,17.464ZM14.141,16.757L14.636,17.252L15.131,16.757L14.636,16.262L14.141,16.757ZM15.555,16.757L16.05,17.252L16.545,16.757L16.05,16.262L15.555,16.757ZM16.969,16.757L17.464,17.252L17.959,16.757L17.464,16.262L16.969,16.757ZM19.798,16.757L20.293,17.252L20.788,16.757L20.293,16.262L19.798,16.757ZM25.455,16.757L25.95,17.252L26.445,16.757L25.95,16.262L25.455,16.757ZM12.727,16.757L13.222,17.252L13.717,16.757L13.222,16.262L12.727,16.757ZM22.626,16.757L23.121,17.252L23.616,16.757L23.121,16.262L22.626,16.757ZM26.869,16.757L27.364,17.252L27.859,16.757L27.364,16.262L26.869,16.757ZM24.041,16.757L24.536,17.252L25.031,16.757L24.536,16.262L24.041,16.757ZM21.212,16.757L21.707,17.252L22.202,16.757L21.707,16.262L21.212,16.757ZM18.384,16.757L18.879,17.252L19.374,16.757L18.879,16.262L18.384,16.757ZM26.162,16.05L26.657,16.545L27.152,16.05L26.657,15.555L26.162,16.05ZM23.333,16.05L23.828,16.545L24.323,16.05L23.828,15.555L23.333,16.05ZM14.848,16.05L15.343,16.545L15.838,16.05L15.343,15.555L14.848,16.05ZM16.262,16.05L16.757,16.545L17.252,16.05L16.757,15.555L16.262,16.05ZM17.677,16.05L18.172,16.545L18.667,16.05L18.172,15.555L17.677,16.05ZM20.505,16.05L21,16.545L21.495,16.05L21,15.555L20.505,16.05ZM12.02,16.05L12.515,16.545L13.01,16.05L12.515,15.555L12.02,16.05ZM13.434,16.05L13.929,16.545L14.424,16.05L13.929,15.555L13.434,16.05ZM19.091,16.05L19.586,16.545L20.081,16.05L19.586,15.555L19.091,16.05ZM24.748,16.05L25.243,16.545L25.738,16.05L25.243,15.555L24.748,16.05ZM21.919,16.05L22.414,16.545L22.909,16.05L22.414,15.555L21.919,16.05ZM16.969,15.343L17.464,15.838L17.959,15.343L17.464,14.848L16.969,15.343ZM15.555,15.343L16.05,15.838L16.545,15.343L16.05,14.848L15.555,15.343ZM18.384,15.343L18.879,15.838L19.374,15.343L18.879,14.848L18.384,15.343ZM24.041,15.343L24.536,15.838L25.031,15.343L24.536,14.848L24.041,15.343ZM25.455,15.343L25.95,15.838L26.445,15.343L25.95,14.848L25.455,15.343ZM22.626,15.343L23.121,15.838L23.616,15.343L23.121,14.848L22.626,15.343ZM12.727,15.343L13.222,15.838L13.717,15.343L13.222,14.848L12.727,15.343ZM14.141,15.343L14.636,15.838L15.131,15.343L14.636,14.848L14.141,15.343ZM21.212,15.343L21.707,15.838L22.202,15.343L21.707,14.848L21.212,15.343ZM19.798,15.343L20.293,15.838L20.788,15.343L20.293,14.848L19.798,15.343ZM24.748,14.636L25.243,15.131L25.738,14.636L25.243,14.141L24.748,14.636ZM17.677,14.636L18.172,15.131L18.667,14.636L18.172,14.141L17.677,14.636ZM16.262,14.636L16.757,15.131L17.252,14.636L16.757,14.141L16.262,14.636ZM21.919,14.636L22.414,15.131L22.909,14.636L22.414,14.141L21.919,14.636ZM19.091,14.636L19.586,15.131L20.081,14.636L19.586,14.141L19.091,14.636ZM13.434,14.636L13.929,15.131L14.424,14.636L13.929,14.141L13.434,14.636ZM14.848,14.636L15.343,15.131L15.838,14.636L15.343,14.141L14.848,14.636ZM23.333,14.636L23.828,15.131L24.323,14.636L23.828,14.141L23.333,14.636ZM20.505,14.636L21,15.131L21.495,14.636L21,14.141L20.505,14.636ZM16.969,13.929L17.464,14.424L17.959,13.929L17.464,13.434L16.969,13.929ZM18.384,13.929L18.879,14.424L19.374,13.929L18.879,13.434L18.384,13.929ZM22.626,13.929L23.121,14.424L23.616,13.929L23.121,13.434L22.626,13.929ZM24.041,13.929L24.536,14.424L25.031,13.929L24.536,13.434L24.041,13.929ZM19.798,13.929L20.293,14.424L20.788,13.929L20.293,13.434L19.798,13.929ZM15.555,13.929L16.05,14.424L16.545,13.929L16.05,13.434L15.555,13.929ZM14.141,13.929L14.636,14.424L15.131,13.929L14.636,13.434L14.141,13.929ZM21.212,13.929L21.707,14.424L22.202,13.929L21.707,13.434L21.212,13.929ZM23.333,13.222L23.828,13.717L24.323,13.222L23.828,12.727L23.333,13.222ZM20.505,13.222L21,13.717L21.495,13.222L21,12.727L20.505,13.222ZM17.677,13.222L18.172,13.717L18.667,13.222L18.172,12.727L17.677,13.222ZM19.091,13.222L19.586,13.717L20.081,13.222L19.586,12.727L19.091,13.222ZM16.262,13.222L16.757,13.717L17.252,13.222L16.757,12.727L16.262,13.222ZM14.848,13.222L15.343,13.717L15.838,13.222L15.343,12.727L14.848,13.222ZM21.919,13.222L22.414,13.717L22.909,13.222L22.414,12.727L21.919,13.222ZM19.798,12.515L20.293,13.01L20.788,12.515L20.293,12.02L19.798,12.515ZM21.212,12.515L21.707,13.01L22.202,12.515L21.707,12.02L21.212,12.515ZM18.384,12.515L18.879,13.01L19.374,12.515L18.879,12.02L18.384,12.515ZM15.555,12.515L16.05,13.01L16.545,12.515L16.05,12.02L15.555,12.515ZM16.969,12.515L17.464,13.01L17.959,12.515L17.464,12.02L16.969,12.515ZM19.091,11.808L19.586,12.303L20.081,11.808L19.586,11.313L19.091,11.808ZM17.677,11.808L18.172,12.303L18.667,11.808L18.172,11.313L17.677,11.808Z" style="fill:rgb(189,189,189);"/>
        <path id="Handle-expanded" serif:id="Handle expanded" d="M11.542,8.713L22.52,11.787L21.98,13.713L10.454,10.486L13.463,21.23L11.537,21.77L8.658,11.486L1.172,4L4,1.172L11.542,8.713Z" style="fill:rgb(189,189,189);"/>
        <g id="Stripes">
            <g transform="matrix(1,0,0,1,-1.77636e-15,-0.124796)">
                <path d="M8,11L10.875,8.125" style="fill:none;stroke:rgb(223,110,65);stroke-width:2px;"/>
            </g>
            <g transform="matrix(1,0,0,1,-2.4376,-2.5624)">
                <path d="M8,11L10.875,8.125" style="fill:none;stroke:rgb(223,110,65);stroke-width:2px;"/>
            </g>
            <g transform="matrix(1,0,0,1,-4.8752,-5)">
                <path d="M8,11L10.875,8.125" style="fill:none;stroke:rgb(223,110,65);stroke-width:2px;"/>
            </g>
        </g>
        <path id="Handle-stroke" serif:id="Handle stroke" d="M11.907,8.089L23.382,11.302L22.466,14.576L11.464,11.495L14.326,21.716L11.052,22.632L8.033,11.851L0.182,4L4,0.182L11.907,8.089ZM1.172,4L8.658,11.486L11.537,21.77L13.463,21.23L10.454,10.486L21.98,13.713L22.52,11.787L11.542,8.713L4,1.172L1.172,4Z" style="fill:rgb(58,58,58);"/>
        <g id="Frame-expanded" serif:id="Frame expanded" transform="matrix(1.07603,-1.07603,1.35273,1.35273,-41.4779,13.9377)">
            <path d="M29.353,21.27C33.242,24.441 31.642,31.209 26.046,31.493C21.554,31.72 18.477,26.243 20.983,22.536C22.452,20.362 26.385,19.019 29.244,21.185C29.299,21.227 29.299,21.227 29.353,21.27ZM28.332,21.937C27.333,21.181 25.866,20.813 24.52,21.232C20.546,22.469 20.065,28.463 24.178,30.145C26.856,31.24 30.266,28.858 30.184,25.623C30.15,24.276 29.561,22.892 28.332,21.937Z" style="fill:rgb(223,110,65);"/>
            <path d="M29.778,21.018L29.827,21.059L29.875,21.1L29.922,21.141L29.969,21.183L30.015,21.225L30.06,21.267L30.106,21.31L30.15,21.353L30.194,21.396L30.237,21.44L30.28,21.483L30.323,21.527L30.364,21.572L30.406,21.617L30.446,21.662L30.487,21.707L30.526,21.752L30.565,21.798L30.604,21.844L30.642,21.891L30.679,21.937L30.716,21.984L30.752,22.031L30.788,22.078L30.824,22.126L30.858,22.174L30.893,22.222L30.926,22.27L30.959,22.319L30.992,22.367L31.024,22.416L31.056,22.465L31.087,22.515L31.117,22.564L31.147,22.614L31.177,22.664L31.206,22.714L31.234,22.764L31.262,22.815L31.289,22.865L31.316,22.916L31.342,22.967L31.368,23.019L31.393,23.07L31.418,23.121L31.442,23.173L31.466,23.225L31.489,23.277L31.512,23.329L31.534,23.381L31.556,23.434L31.577,23.486L31.598,23.539L31.618,23.592L31.637,23.645L31.657,23.698L31.675,23.751L31.693,23.804L31.711,23.859L31.745,23.965L31.776,24.073L31.806,24.18L31.834,24.289L31.86,24.397L31.883,24.506L31.905,24.615L31.925,24.725L31.943,24.834L31.959,24.944L31.973,25.054L31.985,25.164L31.995,25.274L32.003,25.384L32.009,25.494L32.014,25.604L32.016,25.714L32.017,25.824L32.015,25.934L32.012,26.044L32.007,26.154L32,26.264L31.991,26.373L31.98,26.482L31.967,26.592L31.953,26.7L31.936,26.809L31.918,26.917L31.898,27.025L31.875,27.132L31.852,27.239L31.826,27.346L31.798,27.452L31.769,27.557L31.737,27.663L31.704,27.767L31.669,27.871L31.632,27.975L31.593,28.077L31.553,28.18L31.51,28.281L31.466,28.382L31.42,28.482L31.372,28.581L31.322,28.679L31.296,28.729L31.27,28.777L31.244,28.826L31.217,28.874L31.189,28.922L31.161,28.97L31.133,29.018L31.104,29.065L31.075,29.112L31.045,29.159L31.015,29.206L30.984,29.252L30.953,29.298L30.922,29.344L30.889,29.39L30.857,29.435L30.824,29.481L30.791,29.526L30.757,29.57L30.722,29.614L30.687,29.658L30.652,29.702L30.616,29.746L30.58,29.789L30.543,29.832L30.506,29.874L30.469,29.917L30.431,29.959L30.392,30L30.353,30.042L30.314,30.083L30.274,30.123L30.233,30.164L30.192,30.204L30.151,30.243L30.109,30.283L30.067,30.322L30.024,30.36L29.981,30.399L29.938,30.437L29.894,30.474L29.849,30.511L29.804,30.548L29.758,30.585L29.713,30.621L29.666,30.656L29.619,30.692L29.572,30.727L29.524,30.761L29.476,30.795L29.427,30.829L29.378,30.862L29.328,30.895L29.278,30.927L29.228,30.959L29.177,30.991L29.125,31.022L29.073,31.053L29.021,31.083L28.968,31.113L28.915,31.142L28.861,31.171L28.807,31.199L28.752,31.227L28.697,31.254L28.642,31.281L28.586,31.308L28.529,31.334L28.472,31.359L28.415,31.384L28.357,31.408L28.299,31.432L28.241,31.456L28.182,31.479L28.122,31.501L28.062,31.523L28.002,31.544L27.941,31.565L27.88,31.585L27.819,31.605L27.757,31.624L27.694,31.643L27.631,31.661L27.568,31.678L27.505,31.695L27.44,31.711L27.376,31.727L27.311,31.742L27.246,31.756L27.18,31.77L27.114,31.784L27.048,31.797L26.981,31.809L26.914,31.82L26.846,31.831L26.779,31.841L26.71,31.851L26.642,31.86L26.573,31.869L26.503,31.876L26.433,31.884L26.363,31.89L26.293,31.896L26.222,31.901L26.151,31.906L26.079,31.91L26.02,31.913L25.961,31.915L25.903,31.916L25.844,31.917L25.785,31.918L25.727,31.917L25.669,31.917L25.611,31.915L25.553,31.913L25.495,31.911L25.437,31.908L25.38,31.904L25.323,31.9L25.265,31.896L25.208,31.89L25.152,31.885L25.095,31.878L25.039,31.872L24.982,31.864L24.926,31.856L24.87,31.848L24.815,31.839L24.759,31.83L24.704,31.82L24.649,31.809L24.594,31.798L24.539,31.787L24.485,31.775L24.431,31.762L24.377,31.749L24.323,31.736L24.269,31.722L24.216,31.707L24.163,31.692L24.11,31.677L24.057,31.661L24.005,31.645L23.953,31.628L23.901,31.611L23.849,31.593L23.798,31.575L23.747,31.556L23.696,31.537L23.645,31.518L23.595,31.498L23.544,31.478L23.495,31.457L23.445,31.436L23.396,31.414L23.346,31.392L23.298,31.37L23.249,31.347L23.201,31.323L23.153,31.3L23.105,31.276L23.057,31.251L23.01,31.226L22.963,31.201L22.916,31.176L22.87,31.15L22.824,31.123L22.777,31.096L22.687,31.042L22.597,30.986L22.508,30.928L22.421,30.869L22.334,30.809L22.249,30.748L22.165,30.685L22.082,30.62L22,30.555L21.92,30.488L21.84,30.42L21.762,30.351L21.685,30.281L21.61,30.209L21.535,30.137L21.462,30.063L21.39,29.988L21.319,29.912L21.249,29.835L21.181,29.757L21.114,29.678L21.048,29.598L20.984,29.518L20.92,29.436L20.858,29.353L20.798,29.269L20.738,29.185L20.68,29.1L20.624,29.013L20.569,28.926L20.515,28.839L20.462,28.75L20.411,28.661L20.361,28.571L20.312,28.48L20.265,28.389L20.22,28.297L20.176,28.204L20.133,28.111L20.091,28.017L20.051,27.923L20.013,27.828L19.976,27.732L19.941,27.636L19.907,27.539L19.874,27.442L19.843,27.345L19.814,27.247L19.786,27.148L19.759,27.05L19.735,26.95L19.712,26.851L19.69,26.751L19.67,26.651L19.652,26.55L19.635,26.45L19.62,26.348L19.606,26.247L19.594,26.146L19.584,26.044L19.576,25.942L19.569,25.84L19.564,25.738L19.561,25.636L19.56,25.533L19.56,25.431L19.562,25.328L19.566,25.226L19.571,25.123L19.579,25.021L19.588,24.918L19.599,24.816L19.612,24.714L19.627,24.611L19.644,24.509L19.662,24.407L19.683,24.305L19.705,24.204L19.73,24.102L19.756,24.001L19.785,23.9L19.815,23.799L19.847,23.699L19.882,23.599L19.918,23.5L19.937,23.449L19.957,23.4L19.977,23.35L19.997,23.301L20.018,23.252L20.04,23.202L20.062,23.153L20.085,23.104L20.108,23.055L20.131,23.007L20.156,22.958L20.18,22.909L20.206,22.861L20.231,22.813L20.258,22.765L20.285,22.717L20.312,22.669L20.34,22.621L20.369,22.573L20.398,22.526L20.427,22.479L20.458,22.432L20.488,22.385L20.52,22.338L20.558,22.282L20.597,22.227L20.637,22.172L20.678,22.118L20.72,22.063L20.763,22.01L20.807,21.956L20.852,21.903L20.897,21.851L20.943,21.799L20.991,21.747L21.039,21.696L21.088,21.645L21.138,21.595L21.188,21.545L21.239,21.496L21.292,21.447L21.344,21.399L21.398,21.351L21.453,21.304L21.508,21.257L21.564,21.211L21.62,21.165L21.678,21.12L21.736,21.075L21.795,21.031L21.854,20.987L21.914,20.944L21.975,20.902L22.036,20.86L22.098,20.818L22.161,20.778L22.225,20.738L22.289,20.698L22.353,20.659L22.418,20.621L22.484,20.583L22.551,20.546L22.618,20.509L22.685,20.474L22.753,20.439L22.822,20.404L22.891,20.37L22.961,20.337L23.031,20.305L23.102,20.273L23.173,20.242L23.245,20.212L23.317,20.182L23.39,20.153L23.463,20.125L23.536,20.098L23.61,20.071L23.685,20.045L23.76,20.02L23.835,19.996L23.911,19.972L23.987,19.949L24.064,19.927L24.14,19.906L24.218,19.886L24.295,19.866L24.373,19.848L24.452,19.83L24.53,19.813L24.609,19.797L24.689,19.782L24.768,19.768L24.848,19.754L24.928,19.742L25.009,19.73L25.089,19.72L25.17,19.71L25.251,19.701L25.333,19.694L25.414,19.687L25.496,19.681L25.578,19.676L25.66,19.672L25.743,19.669L25.825,19.668L25.908,19.667L25.991,19.667L26.073,19.668L26.156,19.671L26.239,19.674L26.323,19.679L26.406,19.684L26.489,19.691L26.572,19.699L26.655,19.708L26.739,19.718L26.822,19.729L26.905,19.741L26.988,19.754L27.071,19.769L27.154,19.785L27.237,19.801L27.32,19.82L27.403,19.839L27.486,19.859L27.568,19.881L27.65,19.904L27.732,19.928L27.814,19.953L27.896,19.98L27.977,20.007L28.058,20.036L28.139,20.066L28.22,20.098L28.3,20.131L28.38,20.165L28.46,20.2L28.539,20.236L28.618,20.274L28.697,20.313L28.775,20.353L28.853,20.395L28.93,20.438L29.008,20.482L29.084,20.527L29.16,20.574L29.236,20.622L29.311,20.671L29.386,20.722L29.46,20.774L29.534,20.827L29.608,20.883L29.669,20.93L29.728,20.977L29.778,21.018ZM29.299,21.227L29.244,21.185L29.177,21.135L29.11,21.086L29.042,21.038L28.973,20.992L28.905,20.947L28.836,20.903L28.766,20.86L28.697,20.819L28.627,20.779L28.556,20.74L28.486,20.702L28.415,20.666L28.344,20.631L28.272,20.597L28.201,20.564L28.129,20.532L28.057,20.501L27.984,20.472L27.912,20.443L27.839,20.416L27.766,20.39L27.693,20.365L27.62,20.342L27.546,20.319L27.473,20.297L27.399,20.277L27.325,20.257L27.251,20.239L27.177,20.222L27.103,20.206L27.028,20.191L26.954,20.176L26.88,20.163L26.805,20.151L26.73,20.14L26.656,20.13L26.581,20.122L26.507,20.114L26.432,20.107L26.357,20.101L26.283,20.096L26.208,20.092L26.133,20.089L26.059,20.086L25.984,20.085L25.91,20.085L25.836,20.086L25.761,20.087L25.687,20.09L25.613,20.093L25.539,20.098L25.465,20.103L25.392,20.109L25.318,20.116L25.245,20.124L25.171,20.133L25.098,20.142L25.025,20.153L24.953,20.164L24.88,20.176L24.808,20.189L24.736,20.203L24.664,20.218L24.592,20.233L24.521,20.249L24.45,20.266L24.379,20.284L24.309,20.302L24.238,20.322L24.169,20.342L24.099,20.363L24.03,20.384L23.961,20.406L23.892,20.429L23.824,20.453L23.756,20.477L23.689,20.503L23.622,20.528L23.555,20.555L23.489,20.582L23.423,20.61L23.357,20.638L23.292,20.668L23.228,20.697L23.163,20.728L23.1,20.759L23.037,20.791L22.974,20.823L22.912,20.856L22.85,20.89L22.789,20.924L22.728,20.958L22.668,20.994L22.609,21.03L22.55,21.066L22.491,21.103L22.433,21.141L22.376,21.179L22.32,21.217L22.263,21.257L22.208,21.296L22.153,21.337L22.099,21.377L22.046,21.418L21.993,21.46L21.941,21.502L21.889,21.545L21.838,21.588L21.788,21.632L21.739,21.676L21.69,21.72L21.642,21.765L21.595,21.81L21.548,21.856L21.503,21.902L21.458,21.949L21.414,21.996L21.37,22.043L21.328,22.091L21.286,22.139L21.245,22.187L21.205,22.236L21.166,22.285L21.127,22.335L21.09,22.385L21.053,22.435L21.017,22.485L20.983,22.536L20.953,22.58L20.925,22.623L20.897,22.667L20.869,22.711L20.842,22.755L20.816,22.8L20.79,22.844L20.764,22.889L20.739,22.933L20.714,22.978L20.69,23.023L20.667,23.068L20.644,23.113L20.621,23.159L20.599,23.204L20.577,23.25L20.556,23.296L20.535,23.342L20.515,23.388L20.496,23.434L20.476,23.48L20.458,23.526L20.44,23.573L20.422,23.619L20.388,23.712L20.355,23.806L20.325,23.9L20.297,23.995L20.27,24.089L20.245,24.184L20.222,24.279L20.201,24.375L20.182,24.47L20.164,24.566L20.149,24.662L20.135,24.759L20.122,24.855L20.112,24.951L20.103,25.048L20.096,25.145L20.091,25.241L20.087,25.338L20.085,25.435L20.085,25.531L20.087,25.628L20.09,25.725L20.094,25.821L20.101,25.918L20.109,26.014L20.118,26.11L20.129,26.206L20.142,26.302L20.156,26.397L20.172,26.493L20.19,26.588L20.209,26.683L20.229,26.777L20.251,26.872L20.274,26.965L20.299,27.059L20.326,27.152L20.354,27.245L20.383,27.337L20.414,27.429L20.446,27.521L20.48,27.612L20.514,27.702L20.551,27.792L20.589,27.881L20.628,27.97L20.668,28.058L20.71,28.146L20.753,28.233L20.798,28.319L20.843,28.405L20.89,28.49L20.939,28.574L20.988,28.657L21.039,28.74L21.091,28.822L21.145,28.903L21.199,28.984L21.255,29.063L21.312,29.142L21.37,29.219L21.429,29.296L21.49,29.372L21.552,29.447L21.614,29.521L21.678,29.593L21.743,29.665L21.809,29.736L21.877,29.806L21.945,29.875L22.014,29.942L22.085,30.009L22.156,30.074L22.229,30.138L22.302,30.201L22.377,30.263L22.452,30.323L22.529,30.383L22.606,30.441L22.684,30.497L22.764,30.553L22.844,30.607L22.925,30.659L23.007,30.71L23.09,30.76L23.132,30.785L23.174,30.809L23.217,30.832L23.259,30.856L23.302,30.879L23.345,30.901L23.388,30.923L23.431,30.945L23.475,30.967L23.519,30.988L23.563,31.009L23.607,31.029L23.651,31.049L23.696,31.068L23.741,31.087L23.786,31.106L23.831,31.124L23.876,31.142L23.922,31.16L23.968,31.177L24.014,31.194L24.06,31.21L24.106,31.226L24.153,31.241L24.199,31.256L24.246,31.271L24.293,31.285L24.341,31.299L24.388,31.312L24.436,31.325L24.484,31.338L24.532,31.35L24.58,31.361L24.628,31.372L24.677,31.383L24.725,31.393L24.774,31.403L24.823,31.412L24.872,31.421L24.922,31.43L24.971,31.438L25.021,31.445L25.071,31.452L25.121,31.459L25.171,31.465L25.221,31.47L25.272,31.475L25.322,31.48L25.373,31.484L25.424,31.488L25.475,31.491L25.526,31.494L25.577,31.496L25.629,31.497L25.681,31.499L25.732,31.499L25.784,31.499L25.836,31.499L25.888,31.498L25.941,31.497L25.993,31.495L26.046,31.493L26.111,31.489L26.176,31.485L26.241,31.48L26.305,31.474L26.369,31.469L26.433,31.462L26.496,31.455L26.559,31.447L26.621,31.439L26.683,31.43L26.745,31.421L26.806,31.411L26.867,31.4L26.928,31.389L26.988,31.378L27.048,31.366L27.107,31.353L27.166,31.34L27.225,31.326L27.283,31.312L27.341,31.297L27.399,31.282L27.456,31.266L27.513,31.25L27.57,31.233L27.626,31.216L27.681,31.198L27.737,31.18L27.792,31.161L27.846,31.142L27.9,31.122L27.954,31.102L28.007,31.081L28.06,31.06L28.113,31.038L28.165,31.016L28.217,30.993L28.269,30.97L28.32,30.947L28.371,30.923L28.421,30.899L28.471,30.874L28.52,30.848L28.57,30.823L28.618,30.796L28.667,30.77L28.715,30.743L28.762,30.715L28.809,30.688L28.856,30.659L28.903,30.631L28.949,30.601L28.994,30.572L29.04,30.542L29.084,30.512L29.129,30.481L29.173,30.45L29.217,30.418L29.26,30.386L29.303,30.354L29.345,30.321L29.387,30.288L29.429,30.255L29.47,30.221L29.511,30.187L29.552,30.153L29.592,30.118L29.631,30.083L29.671,30.047L29.709,30.011L29.748,29.975L29.786,29.939L29.824,29.902L29.861,29.864L29.898,29.827L29.934,29.789L29.97,29.751L30.006,29.712L30.041,29.674L30.076,29.634L30.11,29.595L30.144,29.555L30.178,29.515L30.211,29.475L30.244,29.434L30.276,29.393L30.308,29.352L30.339,29.311L30.371,29.269L30.401,29.227L30.432,29.185L30.461,29.142L30.491,29.099L30.52,29.056L30.549,29.013L30.577,28.969L30.605,28.925L30.632,28.881L30.659,28.837L30.685,28.793L30.712,28.748L30.737,28.703L30.762,28.658L30.787,28.612L30.812,28.566L30.836,28.521L30.883,28.428L30.928,28.335L30.971,28.241L31.013,28.146L31.053,28.051L31.091,27.954L31.127,27.857L31.162,27.76L31.195,27.662L31.227,27.563L31.256,27.464L31.284,27.364L31.31,27.264L31.335,27.163L31.357,27.062L31.378,26.96L31.397,26.858L31.415,26.756L31.43,26.653L31.444,26.55L31.456,26.447L31.466,26.343L31.475,26.239L31.482,26.136L31.487,26.031L31.49,25.927L31.491,25.823L31.491,25.719L31.488,25.614L31.484,25.51L31.478,25.406L31.47,25.301L31.461,25.197L31.449,25.093L31.436,24.989L31.421,24.885L31.404,24.781L31.385,24.678L31.365,24.575L31.342,24.472L31.318,24.369L31.292,24.267L31.264,24.165L31.234,24.064L31.202,23.962L31.185,23.912L31.168,23.862L31.151,23.812L31.133,23.762L31.114,23.712L31.095,23.662L31.076,23.612L31.056,23.563L31.035,23.514L31.015,23.464L30.993,23.415L30.971,23.367L30.949,23.318L30.926,23.269L30.903,23.221L30.879,23.173L30.855,23.125L30.83,23.077L30.805,23.029L30.78,22.981L30.753,22.934L30.727,22.887L30.7,22.84L30.672,22.793L30.644,22.747L30.616,22.7L30.586,22.654L30.557,22.608L30.527,22.562L30.496,22.517L30.465,22.471L30.434,22.426L30.402,22.382L30.37,22.337L30.337,22.293L30.303,22.248L30.269,22.204L30.235,22.161L30.2,22.117L30.165,22.074L30.129,22.031L30.092,21.989L30.056,21.946L30.018,21.904L29.98,21.862L29.942,21.821L29.903,21.78L29.864,21.739L29.824,21.698L29.784,21.658L29.743,21.617L29.702,21.578L29.66,21.538L29.618,21.499L29.575,21.46L29.531,21.421L29.488,21.383L29.443,21.345L29.398,21.307L29.353,21.27L29.299,21.227ZM28.446,22.028L28.501,22.074L28.555,22.121L28.609,22.169L28.661,22.217L28.713,22.265L28.763,22.314L28.813,22.364L28.862,22.414L28.91,22.465L28.957,22.516L29.003,22.568L29.048,22.62L29.092,22.673L29.135,22.726L29.178,22.78L29.219,22.834L29.26,22.889L29.299,22.944L29.338,22.999L29.376,23.055L29.413,23.111L29.449,23.168L29.484,23.224L29.519,23.282L29.552,23.339L29.585,23.397L29.616,23.456L29.647,23.514L29.677,23.573L29.706,23.633L29.734,23.692L29.762,23.752L29.788,23.812L29.814,23.873L29.838,23.933L29.862,23.994L29.885,24.055L29.907,24.116L29.928,24.178L29.949,24.239L29.968,24.301L29.987,24.363L30.005,24.425L30.022,24.488L30.038,24.55L30.053,24.613L30.068,24.675L30.081,24.738L30.094,24.801L30.106,24.864L30.117,24.927L30.127,24.99L30.137,25.054L30.145,25.117L30.153,25.18L30.16,25.243L30.166,25.307L30.171,25.37L30.176,25.433L30.179,25.496L30.182,25.56L30.184,25.623L30.185,25.698L30.185,25.774L30.184,25.849L30.182,25.924L30.178,25.998L30.173,26.072L30.167,26.145L30.16,26.219L30.151,26.292L30.141,26.364L30.131,26.436L30.119,26.508L30.105,26.579L30.091,26.65L30.076,26.721L30.059,26.791L30.042,26.861L30.023,26.93L30.004,26.999L29.983,27.067L29.961,27.135L29.938,27.202L29.915,27.269L29.89,27.335L29.864,27.401L29.837,27.467L29.809,27.532L29.781,27.596L29.751,27.66L29.721,27.723L29.689,27.786L29.657,27.848L29.624,27.91L29.589,27.971L29.554,28.032L29.519,28.092L29.482,28.151L29.444,28.21L29.406,28.268L29.367,28.326L29.327,28.383L29.286,28.439L29.245,28.495L29.202,28.55L29.159,28.605L29.116,28.658L29.071,28.712L29.026,28.764L28.98,28.816L28.933,28.867L28.886,28.918L28.838,28.967L28.79,29.016L28.74,29.065L28.691,29.112L28.64,29.159L28.589,29.206L28.538,29.251L28.485,29.296L28.433,29.34L28.379,29.383L28.325,29.425L28.271,29.467L28.216,29.508L28.161,29.548L28.105,29.587L28.048,29.625L27.991,29.663L27.934,29.7L27.876,29.736L27.818,29.771L27.759,29.805L27.7,29.839L27.641,29.871L27.581,29.903L27.521,29.934L27.46,29.964L27.4,29.993L27.338,30.021L27.277,30.048L27.215,30.075L27.153,30.1L27.09,30.125L27.028,30.148L26.965,30.171L26.901,30.192L26.838,30.213L26.774,30.233L26.71,30.252L26.646,30.269L26.582,30.286L26.517,30.302L26.453,30.317L26.388,30.331L26.323,30.343L26.258,30.355L26.193,30.366L26.127,30.376L26.062,30.384L25.996,30.392L25.931,30.398L25.865,30.404L25.8,30.408L25.734,30.411L25.668,30.414L25.602,30.415L25.537,30.415L25.471,30.413L25.405,30.411L25.34,30.408L25.274,30.403L25.208,30.398L25.143,30.391L25.078,30.383L25.012,30.374L24.947,30.363L24.882,30.352L24.817,30.339L24.752,30.325L24.688,30.31L24.623,30.294L24.559,30.276L24.495,30.257L24.431,30.237L24.368,30.216L24.304,30.194L24.241,30.17L24.178,30.145L24.13,30.125L24.083,30.105L24.036,30.084L23.989,30.063L23.942,30.041L23.897,30.02L23.851,29.997L23.806,29.975L23.761,29.952L23.717,29.929L23.673,29.905L23.63,29.881L23.587,29.856L23.544,29.832L23.502,29.807L23.461,29.781L23.419,29.755L23.378,29.729L23.338,29.703L23.298,29.676L23.258,29.649L23.219,29.621L23.18,29.594L23.142,29.566L23.104,29.537L23.066,29.508L23.029,29.479L22.992,29.45L22.956,29.42L22.92,29.391L22.884,29.36L22.849,29.33L22.814,29.299L22.78,29.268L22.746,29.236L22.712,29.205L22.679,29.173L22.647,29.141L22.614,29.108L22.582,29.075L22.551,29.042L22.52,29.009L22.489,28.975L22.459,28.942L22.429,28.907L22.399,28.873L22.37,28.839L22.342,28.804L22.313,28.769L22.286,28.733L22.258,28.698L22.231,28.662L22.178,28.59L22.127,28.517L22.077,28.443L22.029,28.368L21.982,28.293L21.937,28.217L21.894,28.14L21.852,28.062L21.812,27.983L21.773,27.904L21.736,27.825L21.701,27.744L21.667,27.663L21.634,27.582L21.603,27.5L21.574,27.417L21.546,27.334L21.52,27.25L21.496,27.166L21.472,27.082L21.451,26.997L21.431,26.912L21.412,26.826L21.395,26.741L21.38,26.655L21.366,26.568L21.353,26.482L21.343,26.395L21.333,26.308L21.325,26.221L21.319,26.134L21.314,26.046L21.311,25.959L21.309,25.871L21.308,25.784L21.31,25.697L21.312,25.609L21.316,25.522L21.322,25.434L21.329,25.347L21.337,25.26L21.347,25.173L21.359,25.087L21.372,25L21.386,24.914L21.402,24.828L21.419,24.742L21.438,24.657L21.458,24.572L21.48,24.487L21.503,24.403L21.527,24.319L21.553,24.235L21.581,24.152L21.61,24.07L21.64,23.988L21.672,23.907L21.705,23.826L21.739,23.746L21.775,23.666L21.812,23.587L21.851,23.509L21.891,23.431L21.933,23.354L21.976,23.278L22.02,23.203L22.066,23.129L22.113,23.055L22.162,22.982L22.212,22.91L22.263,22.839L22.316,22.769L22.37,22.7L22.425,22.632L22.482,22.565L22.54,22.499L22.599,22.434L22.66,22.37L22.722,22.307L22.786,22.246L22.818,22.215L22.851,22.185L22.884,22.155L22.917,22.126L22.951,22.097L22.985,22.068L23.019,22.039L23.054,22.011L23.089,21.983L23.124,21.956L23.16,21.928L23.196,21.901L23.232,21.875L23.269,21.849L23.305,21.823L23.343,21.797L23.38,21.772L23.418,21.747L23.457,21.722L23.495,21.698L23.534,21.674L23.573,21.651L23.613,21.628L23.653,21.605L23.693,21.583L23.734,21.561L23.775,21.539L23.816,21.518L23.858,21.497L23.899,21.476L23.942,21.456L23.984,21.437L24.027,21.417L24.07,21.398L24.114,21.38L24.158,21.362L24.202,21.344L24.246,21.327L24.291,21.31L24.336,21.294L24.382,21.278L24.427,21.262L24.473,21.247L24.52,21.232L24.583,21.213L24.646,21.195L24.71,21.179L24.773,21.163L24.837,21.148L24.901,21.135L24.965,21.123L25.029,21.111L25.093,21.101L25.157,21.092L25.222,21.084L25.286,21.077L25.35,21.071L25.414,21.066L25.479,21.062L25.543,21.059L25.607,21.057L25.671,21.057L25.735,21.057L25.799,21.058L25.863,21.06L25.927,21.063L25.991,21.067L26.054,21.072L26.117,21.078L26.181,21.084L26.244,21.092L26.307,21.101L26.369,21.11L26.432,21.121L26.494,21.132L26.556,21.144L26.618,21.157L26.679,21.171L26.741,21.186L26.801,21.201L26.862,21.217L26.922,21.235L26.982,21.253L27.042,21.271L27.101,21.291L27.16,21.311L27.218,21.332L27.276,21.354L27.334,21.377L27.391,21.4L27.448,21.424L27.504,21.449L27.56,21.475L27.616,21.501L27.67,21.528L27.725,21.555L27.779,21.584L27.832,21.613L27.885,21.642L27.937,21.673L27.988,21.704L28.039,21.735L28.09,21.767L28.14,21.8L28.189,21.834L28.237,21.868L28.285,21.902L28.332,21.937L28.389,21.982L28.446,22.028ZM27.967,22.238L27.928,22.209L27.887,22.179L27.844,22.149L27.801,22.12L27.758,22.091L27.713,22.063L27.669,22.036L27.624,22.009L27.578,21.982L27.532,21.956L27.485,21.931L27.438,21.906L27.391,21.882L27.343,21.858L27.295,21.835L27.246,21.813L27.197,21.792L27.148,21.771L27.098,21.75L27.048,21.731L26.997,21.712L26.947,21.693L26.896,21.676L26.844,21.659L26.793,21.643L26.741,21.627L26.689,21.612L26.637,21.598L26.584,21.585L26.532,21.572L26.479,21.56L26.426,21.549L26.373,21.539L26.32,21.529L26.266,21.52L26.213,21.512L26.159,21.505L26.106,21.498L26.052,21.493L25.998,21.488L25.945,21.483L25.891,21.48L25.837,21.478L25.783,21.476L25.729,21.475L25.675,21.475L25.621,21.475L25.567,21.477L25.513,21.479L25.459,21.483L25.406,21.487L25.352,21.492L25.298,21.498L25.244,21.504L25.191,21.512L25.137,21.521L25.084,21.53L25.03,21.54L24.977,21.551L24.924,21.564L24.871,21.577L24.817,21.591L24.764,21.606L24.71,21.622L24.671,21.634L24.631,21.648L24.591,21.661L24.552,21.675L24.513,21.689L24.474,21.704L24.435,21.719L24.397,21.734L24.359,21.75L24.321,21.766L24.283,21.783L24.246,21.799L24.209,21.817L24.172,21.834L24.135,21.852L24.099,21.87L24.063,21.889L24.027,21.908L23.992,21.927L23.957,21.946L23.922,21.966L23.887,21.987L23.852,22.007L23.818,22.028L23.784,22.049L23.751,22.071L23.717,22.093L23.684,22.115L23.651,22.138L23.618,22.161L23.586,22.184L23.554,22.207L23.522,22.231L23.49,22.255L23.459,22.28L23.428,22.305L23.397,22.33L23.367,22.355L23.336,22.381L23.306,22.407L23.277,22.433L23.247,22.46L23.218,22.487L23.19,22.513L23.132,22.569L23.076,22.626L23.021,22.683L22.968,22.742L22.915,22.802L22.864,22.862L22.813,22.924L22.764,22.987L22.716,23.051L22.67,23.115L22.624,23.181L22.58,23.248L22.536,23.315L22.495,23.384L22.454,23.453L22.414,23.523L22.376,23.594L22.339,23.665L22.303,23.737L22.269,23.81L22.235,23.884L22.203,23.958L22.173,24.033L22.143,24.109L22.115,24.185L22.088,24.262L22.063,24.339L22.039,24.416L22.016,24.495L21.994,24.573L21.974,24.652L21.955,24.732L21.938,24.811L21.922,24.891L21.907,24.972L21.893,25.052L21.881,25.133L21.871,25.214L21.861,25.295L21.853,25.377L21.847,25.458L21.841,25.54L21.838,25.622L21.835,25.704L21.834,25.785L21.835,25.867L21.836,25.949L21.839,26.031L21.844,26.112L21.85,26.194L21.857,26.275L21.866,26.356L21.876,26.437L21.888,26.518L21.901,26.598L21.915,26.679L21.931,26.758L21.948,26.838L21.967,26.917L21.987,26.996L22.008,27.074L22.031,27.152L22.055,27.23L22.081,27.306L22.108,27.383L22.137,27.459L22.167,27.534L22.198,27.609L22.231,27.683L22.265,27.756L22.3,27.829L22.337,27.901L22.376,27.972L22.415,28.042L22.456,28.112L22.499,28.181L22.543,28.249L22.588,28.316L22.635,28.383L22.683,28.449L22.707,28.481L22.732,28.513L22.757,28.545L22.783,28.576L22.809,28.608L22.835,28.639L22.862,28.67L22.888,28.701L22.916,28.731L22.943,28.761L22.971,28.791L23,28.821L23.028,28.85L23.057,28.88L23.087,28.908L23.116,28.937L23.146,28.965L23.177,28.994L23.207,29.021L23.238,29.049L23.27,29.076L23.302,29.103L23.334,29.13L23.366,29.156L23.399,29.183L23.432,29.208L23.466,29.234L23.499,29.259L23.534,29.284L23.568,29.309L23.603,29.333L23.638,29.357L23.674,29.381L23.71,29.405L23.746,29.428L23.783,29.451L23.82,29.473L23.857,29.496L23.895,29.517L23.933,29.539L23.971,29.56L24.01,29.581L24.049,29.602L24.089,29.622L24.129,29.642L24.169,29.662L24.21,29.681L24.251,29.7L24.292,29.719L24.334,29.737L24.376,29.755L24.417,29.772L24.471,29.794L24.524,29.814L24.577,29.832L24.629,29.85L24.682,29.867L24.735,29.882L24.789,29.897L24.842,29.91L24.895,29.923L24.949,29.934L25.002,29.945L25.056,29.954L25.109,29.963L25.163,29.97L25.217,29.977L25.271,29.982L25.325,29.987L25.379,29.991L25.434,29.994L25.488,29.996L25.542,29.996L25.597,29.996L25.652,29.996L25.706,29.994L25.761,29.991L25.816,29.987L25.871,29.983L25.926,29.977L25.981,29.971L26.036,29.964L26.091,29.956L26.146,29.946L26.202,29.936L26.257,29.926L26.312,29.914L26.367,29.901L26.422,29.888L26.478,29.873L26.533,29.858L26.588,29.842L26.643,29.825L26.698,29.807L26.752,29.788L26.807,29.768L26.862,29.748L26.916,29.727L26.971,29.704L27.025,29.681L27.079,29.657L27.133,29.633L27.186,29.607L27.24,29.58L27.293,29.553L27.346,29.525L27.399,29.496L27.451,29.466L27.503,29.436L27.555,29.405L27.607,29.373L27.658,29.34L27.709,29.306L27.76,29.271L27.81,29.236L27.86,29.2L27.909,29.163L27.958,29.126L28.007,29.088L28.055,29.049L28.103,29.009L28.15,28.968L28.197,28.927L28.243,28.885L28.289,28.843L28.334,28.8L28.379,28.756L28.423,28.711L28.467,28.666L28.51,28.62L28.552,28.573L28.594,28.526L28.635,28.478L28.676,28.429L28.716,28.38L28.755,28.33L28.794,28.28L28.832,28.228L28.869,28.177L28.906,28.125L28.942,28.072L28.977,28.018L29.012,27.964L29.045,27.91L29.078,27.855L29.11,27.799L29.142,27.743L29.172,27.686L29.202,27.629L29.231,27.571L29.259,27.513L29.286,27.454L29.313,27.394L29.338,27.335L29.363,27.274L29.387,27.214L29.41,27.152L29.432,27.091L29.453,27.029L29.473,26.966L29.492,26.903L29.51,26.84L29.527,26.776L29.543,26.711L29.558,26.647L29.573,26.582L29.586,26.516L29.598,26.45L29.609,26.384L29.619,26.317L29.628,26.25L29.636,26.183L29.643,26.115L29.648,26.047L29.653,25.979L29.656,25.91L29.659,25.841L29.66,25.771L29.66,25.701L29.658,25.631L29.657,25.572L29.654,25.513L29.651,25.454L29.646,25.395L29.642,25.336L29.636,25.277L29.629,25.218L29.622,25.159L29.614,25.101L29.605,25.042L29.596,24.983L29.586,24.924L29.574,24.866L29.563,24.807L29.55,24.749L29.537,24.69L29.522,24.632L29.507,24.574L29.492,24.516L29.475,24.458L29.458,24.401L29.44,24.343L29.421,24.286L29.401,24.229L29.381,24.173L29.359,24.116L29.337,24.06L29.314,24.004L29.291,23.948L29.266,23.892L29.241,23.837L29.215,23.782L29.189,23.728L29.161,23.673L29.133,23.619L29.103,23.566L29.074,23.512L29.043,23.459L29.011,23.407L28.979,23.354L28.946,23.303L28.912,23.251L28.877,23.2L28.842,23.149L28.806,23.099L28.769,23.049L28.731,23L28.692,22.951L28.653,22.903L28.612,22.855L28.571,22.807L28.53,22.76L28.487,22.714L28.444,22.668L28.399,22.622L28.354,22.577L28.308,22.533L28.262,22.489L28.214,22.445L28.166,22.402L28.117,22.36L28.067,22.318L28.017,22.277L27.967,22.238Z" style="fill:rgb(58,58,58);"/>
        </g>
    </g>
</svg>
